<?xml version="1.0" standalone="no"?>
<!DOCTYPE svg PUBLIC "-//W3C//DTD SVG 1.1//EN" "http://www.w3.org/Graphics/SVG/1.1/DTD/svg11.dtd" >
<svg xmlns="http://www.w3.org/2000/svg" xmlns:xlink="http://www.w3.org/1999/xlink" version="1.1">
<metadata>
Created by FontForge 20170731 at Wed Dec 15 17:02:57 2021
 By Aleksey,,,
Copyright (c) 1998-2021 Typodermic Fonts Inc. All rights reserved.
</metadata>
<defs>
<font id="GoodTimesRg-Regular" horiz-adv-x="2025" >
  <font-face 
    font-family="Good Times Rg"
    font-weight="400"
    font-stretch="normal"
    units-per-em="2048"
    panose-1="2 11 6 5 2 0 0 2 0 1"
    ascent="1636"
    descent="-412"
    x-height="1489"
    cap-height="1489"
    bbox="-569 -412 3510 1997"
    underline-thickness="40"
    underline-position="-333"
    unicode-range="U+0017-2265"
  />
<missing-glyph horiz-adv-x="880" 
d="M606 0h-332q-165 0 -165 143v1200q0 146 165 146h332q166 0 166 -146v-1200q0 -143 -166 -143zM684 143v1200q0 68 -78 68h-332q-77 0 -77 -68v-1200q0 -65 77 -65h332q78 0 78 65z" />
    <glyph glyph-name=".notdef" horiz-adv-x="880" 
d="M606 0h-332q-165 0 -165 143v1200q0 146 165 146h332q166 0 166 -146v-1200q0 -143 -166 -143zM684 143v1200q0 68 -78 68h-332q-77 0 -77 -68v-1200q0 -65 77 -65h332q78 0 78 65z" />
    <glyph glyph-name=".null" horiz-adv-x="212" 
 />
    <glyph glyph-name="nonmarkingreturn" horiz-adv-x="682" 
 />
    <glyph glyph-name="uni0017" horiz-adv-x="602" 
 />
    <glyph glyph-name="space" unicode=" " horiz-adv-x="602" 
 />
    <glyph glyph-name="exclam" unicode="!" horiz-adv-x="610" 
d="M428 479h-246v1012h246v-1012zM309 -18q-59 0 -99 39.5t-40 101.5q0 59 40 98t99 39q61 0 100.5 -38.5t39.5 -98.5q0 -63 -39 -102t-101 -39z" />
    <glyph glyph-name="quotedbl" unicode="&#x22;" horiz-adv-x="925" 
d="M739 954h-168l-49 535h264zM356 954h-170l-47 535h264z" />
    <glyph glyph-name="numbersign" unicode="#" horiz-adv-x="1427" 
d="M827 0h-184l121 403h-305l-121 -403h-182l118 403h-184v175h238l106 358h-186v172h239l115 381h186l-114 -381h303l115 381h184l-115 -381h187v-172h-240l-107 -358h187v-175h-240zM817 578l107 358h-306l-106 -358h305z" />
    <glyph glyph-name="dollar" unicode="$" horiz-adv-x="1523" 
d="M1032 145h-203v-145h-114v145h-582v213h582v312h-234q-167 0 -265.5 94.5t-98.5 245.5q0 147 96.5 240t269.5 93h232v146h114v-146h517v-208h-517v-293h203q371 0 371 -346q0 -158 -94.5 -254.5t-276.5 -96.5zM829 358h203q83 0 127.5 41t44.5 113q0 158 -172 158h-203
v-312zM715 842v293h-232q-70 0 -109.5 -39.5t-39.5 -106.5q0 -68 40.5 -107.5t108.5 -39.5h232z" />
    <glyph glyph-name="percent" unicode="%" horiz-adv-x="1976" 
d="M471 758q-163 0 -274 113.5t-111 275.5q0 163 110 269t275 106q164 0 275.5 -106t111.5 -269q0 -162 -112.5 -275.5t-274.5 -113.5zM727 1141q0 110 -68.5 180t-187.5 70t-187.5 -70t-68.5 -180q0 -111 68 -181.5t188 -70.5q119 0 187.5 71t68.5 181zM377 -137h-178
l1345 1716h174zM1503 -31q-163 0 -274 113.5t-111 275.5q0 163 110 269t275 106q164 0 275.5 -106t111.5 -269q0 -162 -112.5 -275.5t-274.5 -113.5zM1759 352q0 110 -68.5 180t-187.5 70t-187.5 -70t-68.5 -180q0 -111 68 -181.5t188 -70.5q119 0 187.5 71t68.5 181z" />
    <glyph glyph-name="ampersand" unicode="&#x26;" horiz-adv-x="1554" 
d="M1495 0h-915q-220 0 -350 123.5t-130 329.5q0 123 65 211t169 122q-91 29 -148 107.5t-57 210.5q0 187 129 286t352 99h283v-258h-291q-211 0 -211 -184q0 -87 55 -134t162 -47h795v-217h-176v-389h268v-260zM967 260v389h-340q-134 0 -199.5 -43t-65.5 -147
q0 -95 68 -147t193 -52h344z" />
    <glyph glyph-name="quotesingle" unicode="'" horiz-adv-x="522" 
d="M344 954h-166l-49 535h264z" />
    <glyph glyph-name="parenleft" unicode="(" horiz-adv-x="729" 
d="M600 -182h-184q-117 254 -170 482.5t-53 459.5q0 222 53 447.5t164 484.5h188q-123 -279 -181.5 -504t-58.5 -430q0 -430 242 -940z" />
    <glyph glyph-name="parenright" unicode=")" horiz-adv-x="727" 
d="M313 -182h-184q240 512 240 940q0 205 -57.5 430.5t-178.5 503.5h184q112 -259 166 -484.5t54 -447.5q0 -231 -53.5 -459.5t-170.5 -482.5z" />
    <glyph glyph-name="asterisk" unicode="*" horiz-adv-x="960" 
d="M735 889l-96 -72l-160 223l-157 -223l-97 74l156 221l-252 78l37 115l252 -78v262h123v-262l254 78l36 -115l-253 -78z" />
    <glyph glyph-name="plus" unicode="+" horiz-adv-x="1413" 
d="M795 178h-174v494h-492v172h492v491h174v-491h489v-172h-489v-494z" />
    <glyph glyph-name="comma" unicode="," horiz-adv-x="530" 
d="M299 -242h-160v533h262z" />
    <glyph glyph-name="hyphen" unicode="-" horiz-adv-x="606" 
d="M551 670h-492v174h492v-174z" />
    <glyph glyph-name="period" unicode="." horiz-adv-x="536" 
d="M408 123q0 -59 -41 -99t-101 -40q-58 0 -97.5 40t-39.5 99t39.5 99t97.5 40q60 0 101 -40t41 -99z" />
    <glyph glyph-name="slash" unicode="/" horiz-adv-x="909" 
d="M199 0h-181l701 1489h170z" />
    <glyph glyph-name="zero" unicode="0" horiz-adv-x="1716" 
d="M858 -18q-214 0 -391.5 103.5t-279 282t-101.5 392.5q0 161 59.5 300.5t162.5 237t245.5 153.5t304.5 56q215 0 391.5 -95t278.5 -266.5t102 -385.5q0 -160 -60 -304t-162.5 -248t-246 -165t-303.5 -61zM1368 748q0 221 -136 359t-374 138q-240 0 -376 -138t-136 -359
q0 -222 136 -364t374 -142q239 0 375.5 142t136.5 364z" />
    <glyph glyph-name="one" unicode="1" horiz-adv-x="788" 
d="M659 0h-258v1001q0 110 -53.5 169t-154.5 59h-144v260h144q223 0 344.5 -128.5t121.5 -359.5v-1001z" />
    <glyph glyph-name="two" unicode="2" horiz-adv-x="1689" 
d="M1559 0h-1430v436q0 215 116.5 322.5t342.5 107.5h538q86 0 137.5 48.5t51.5 132.5q0 85 -50.5 133.5t-138.5 48.5h-985v260h985q216 0 336.5 -116t120.5 -302q0 -188 -123 -306t-332 -118h-540q-105 0 -159 -48.5t-54 -143.5v-195h1184v-260z" />
    <glyph glyph-name="three" unicode="3" horiz-adv-x="1693" 
d="M1114 0h-1020v260h957q126 0 202 51.5t76 145.5q0 92 -58 141t-167 49h-658v219h639q112 0 165 43t53 138q0 99 -67 141.5t-202 42.5h-934v258h985q222 0 351 -99t129 -286q0 -132 -57 -210.5t-148 -107.5q105 -33 169 -121t64 -214q0 -203 -131 -327t-348 -124z" />
    <glyph glyph-name="four" unicode="4" horiz-adv-x="1730" 
d="M1464 0h-260v397h-616q-490 0 -490 477v615h260v-612q0 -126 55 -178t175 -52h616v842h260v-842h215v-250h-215v-397z" />
    <glyph glyph-name="five" unicode="5" horiz-adv-x="1812" 
d="M1245 0h-1116v260h1116q102 0 158.5 53t56.5 142q0 94 -55.5 143t-159.5 49h-1116v842h1505v-260h-1237v-363h848q226 0 343.5 -107.5t117.5 -322.5q0 -195 -118.5 -315.5t-342.5 -120.5z" />
    <glyph glyph-name="six" unicode="6" horiz-adv-x="1785" 
d="M1225 0h-463q-321 0 -498.5 192t-177.5 568q0 371 175.5 550t500.5 179h854v-260h-854q-180 0 -283 -87.5t-127 -273.5h873q219 0 335.5 -102t116.5 -313q0 -215 -120 -334t-332 -119zM1200 647h-850q39 -387 412 -387h438q110 0 168.5 53t58.5 150q0 184 -227 184z" />
    <glyph glyph-name="seven" unicode="7" horiz-adv-x="1548" 
d="M440 0h-338l1018 1229h-1030v260h1251q83 0 123.5 -34t40.5 -89q0 -64 -49 -123z" />
    <glyph glyph-name="eight" unicode="8" horiz-adv-x="1839" 
d="M1255 0h-671q-218 0 -349 123.5t-131 327.5q0 126 64.5 213.5t169.5 121.5q-91 29 -148 107.5t-57 210.5q0 187 128.5 286t350.5 99h615q222 0 351.5 -99.5t129.5 -285.5q0 -132 -57.5 -210.5t-149.5 -107.5q105 -34 169.5 -121.5t64.5 -213.5q0 -204 -131 -327.5
t-349 -123.5zM1245 647h-651q-109 0 -168 -50t-59 -142q0 -94 76.5 -144.5t203.5 -50.5h545q127 0 204 50.5t77 144.5q0 92 -59.5 142t-168.5 50zM1178 1231h-516q-133 0 -200 -42.5t-67 -141.5q0 -96 52.5 -138.5t164.5 -42.5h615q112 0 164.5 42.5t52.5 138.5
q0 99 -66.5 141.5t-199.5 42.5z" />
    <glyph glyph-name="nine" unicode="9" horiz-adv-x="1763" 
d="M1001 0h-747v260h747q346 0 404 326h-889q-430 0 -430 438q0 202 117.5 333.5t312.5 131.5h485q320 0 498 -192.5t178 -567.5q0 -188 -46.5 -328t-135 -227.5t-212 -130.5t-282.5 -43zM350 1010q0 -104 54.5 -155.5t154.5 -51.5h856q-26 424 -414 424h-442
q-98 0 -153.5 -57t-55.5 -160z" />
    <glyph glyph-name="colon" unicode=":" horiz-adv-x="536" 
d="M408 123q0 -59 -41 -99t-101 -40q-58 0 -97.5 40t-39.5 99t39.5 99t97.5 40q60 0 101 -40t41 -99zM408 795q0 -58 -41 -98t-101 -40q-58 0 -97.5 39.5t-39.5 98.5t39.5 100t97.5 41q60 0 101 -41t41 -100z" />
    <glyph glyph-name="semicolon" unicode=";" horiz-adv-x="536" 
d="M268 657q-59 0 -98 40t-39 100q0 61 39 100t98 39q62 0 101 -39t39 -100q0 -60 -39.5 -100t-100.5 -40zM299 -242h-160v533h262z" />
    <glyph glyph-name="less" unicode="&#x3c;" horiz-adv-x="1413" 
d="M1284 205l-1085 457q-70 29 -70 96q0 30 19 56.5t51 39.5l1085 455v-187l-934 -364l934 -369v-184z" />
    <glyph glyph-name="equal" unicode="=" horiz-adv-x="1413" 
d="M1284 946h-1155v172h1155v-172zM1284 393h-1155v172h1155v-172z" />
    <glyph glyph-name="greater" unicode="&#x3e;" horiz-adv-x="1413" 
d="M1214 662l-1085 -457v184l934 369l-934 364v187l1085 -455q32 -13 51 -39.5t19 -56.5q0 -67 -70 -96z" />
    <glyph glyph-name="question" unicode="?" horiz-adv-x="1589" 
d="M1077 647h-506q-96 0 -96 -86v-82h-246v88q0 140 86.5 219.5t255.5 79.5h502q87 0 138 48.5t51 132.5q0 85 -50.5 133.5t-138.5 48.5h-983v260h983q215 0 335 -116t120 -302q0 -188 -122 -306t-329 -118zM356 -16q-59 0 -99 39.5t-40 101.5q0 59 40 98t99 39
q61 0 100.5 -38.5t39.5 -98.5q0 -63 -39 -102t-101 -39z" />
    <glyph glyph-name="at" unicode="@" horiz-adv-x="1705" 
d="M1577 0h-741q-216 0 -386 89.5t-267 256t-97 381.5q0 214 97.5 388t269.5 273t383 99h741v-1088h-774q-129 0 -211 98.5t-82 243.5q0 144 81 240t212 96h401v-514h178v733h-546q-255 0 -405 -152.5t-150 -400.5t149.5 -401.5t405.5 -153.5h741v-188zM1034 563v367h-184
q-76 0 -121 -50t-45 -135q0 -79 46.5 -130.5t119.5 -51.5h184z" />
    <glyph glyph-name="A" unicode="A" 
d="M1995 0h-314l-223 375h-704l123 211h456l-332 557l-675 -1143h-297l856 1425q51 84 127 84q74 0 125 -84z" />
    <glyph glyph-name="B" unicode="B" horiz-adv-x="1824" 
d="M1247 0h-1120v1489h1090q223 0 353 -99t130 -286q0 -132 -57.5 -210.5t-149.5 -107.5q105 -33 169 -121t64 -214q0 -204 -130.5 -327.5t-348.5 -123.5zM1237 647h-662v219h644q112 0 164.5 42.5t52.5 138.5q0 46 -15 79.5t-40.5 53t-68 31t-87 15t-107.5 3.5h-731v-971
h754q321 0 321 197q0 92 -58 142t-167 50z" />
    <glyph glyph-name="C" unicode="C" horiz-adv-x="1697" 
d="M1616 0h-807q-205 0 -370.5 99.5t-259 273.5t-93.5 387q0 215 94 382t258 257t371 90h807v-260h-807q-201 0 -332 -135t-131 -346t131 -349.5t332 -138.5h807v-260z" />
    <glyph glyph-name="D" unicode="D" horiz-adv-x="1800" 
d="M991 0h-862v1489h862q208 0 373 -91.5t258.5 -258t93.5 -379.5q0 -214 -93 -387.5t-259 -273t-373 -99.5zM387 260h604q201 0 333 138.5t132 349.5q0 210 -131.5 345.5t-333.5 135.5h-604v-969z" />
    <glyph glyph-name="E" unicode="E" horiz-adv-x="1554" 
d="M1460 0h-1331v1489h1329v-260h-1071v-969h1073v-260zM1403 647h-825v219h825v-219z" />
    <glyph glyph-name="F" unicode="F" horiz-adv-x="1443" 
d="M387 0h-258v1489h1264v-260h-1006v-1229zM1331 616h-753v228h753v-228z" />
    <glyph glyph-name="G" unicode="G" horiz-adv-x="1818" 
d="M1708 0h-899q-205 0 -370.5 99.5t-259 273.5t-93.5 387q0 215 94 382t258 257t371 90h807v-260h-807q-201 0 -332 -135t-131 -346t131 -349.5t332 -138.5h637v387h-672v219h934v-866z" />
    <glyph glyph-name="H" unicode="H" horiz-adv-x="1716" 
d="M1587 -6h-260v647h-749v231h749v617h260v-1495zM389 -6h-260v1495h260v-1495z" />
    <glyph glyph-name="I" unicode="I" horiz-adv-x="546" 
d="M403 0h-260v1489h260v-1489z" />
    <glyph glyph-name="J" unicode="J" horiz-adv-x="1449" 
d="M594 0h-545v260h545q259 0 374 100t115 318v811h260v-811q0 -347 -181 -512.5t-568 -165.5z" />
    <glyph glyph-name="K" unicode="K" horiz-adv-x="1792" 
d="M1753 0h-397l-834 655q-31 24 -42 49.5t-11 59.5q0 36 14 63t52 56l788 606h399l-974 -727zM389 0h-260v1489h260v-1489z" />
    <glyph glyph-name="L" unicode="L" horiz-adv-x="1447" 
d="M1391 0h-1262v1489h260v-1229h1002v-260z" />
    <glyph glyph-name="M" unicode="M" horiz-adv-x="2283" 
d="M2241 0h-259l-284 1047l-422 -969q-45 -98 -133 -98q-91 0 -133 98l-420 969l-285 -1047h-256l383 1401q26 106 129 106q42 0 77.5 -23t53.5 -65l459 -1052l459 1052q39 88 125 88q96 0 125 -106z" />
    <glyph glyph-name="N" unicode="N" horiz-adv-x="1787" 
d="M1417 37l-1046 1053v-1090h-248v1352q0 72 35.5 113.5t97.5 41.5q58 0 111 -53l1050 -1042v1089h248v-1364q0 -72 -35.5 -113.5t-93.5 -41.5q-64 0 -119 55z" />
    <glyph glyph-name="O" unicode="O" horiz-adv-x="1982" 
d="M1171 0h-362q-205 0 -370.5 99.5t-259 273.5t-93.5 387q0 215 94 382t258 257t371 90h362q213 0 379 -91.5t258.5 -258t92.5 -379.5q0 -214 -93.5 -387.5t-260.5 -273t-376 -99.5zM809 260h362q205 0 337 138.5t132 349.5t-132 346t-337 135h-362q-201 0 -332 -135
t-131 -346t131 -349.5t332 -138.5z" />
    <glyph glyph-name="P" unicode="P" horiz-adv-x="1775" 
d="M1176 414h-598v252h598q135 0 212.5 77t77.5 205q0 130 -77 205.5t-213 75.5h-789v-1229h-258v1489h1047q256 0 400 -143t144 -390q0 -245 -145 -393.5t-399 -148.5z" />
    <glyph glyph-name="Q" unicode="Q" horiz-adv-x="1982" 
d="M1974 0h-346l-102 88q-163 -88 -355 -88h-362q-205 0 -370.5 99.5t-259 273.5t-93.5 387q0 215 94 382t258 257t371 90h362q213 0 379 -91.5t258.5 -258t92.5 -379.5q0 -160 -54.5 -300t-152.5 -243zM1300 276l-430 338h344l277 -233q70 67 109.5 162t39.5 205
q0 211 -132 346t-337 135h-362q-201 0 -332 -135t-131 -346t131 -349.5t332 -138.5h362q63 0 129 16z" />
    <glyph glyph-name="R" unicode="R" horiz-adv-x="1886" 
d="M1880 0h-369l-376 414h-557v229h620q139 0 212 77t73 222q0 142 -74.5 214.5t-210.5 72.5h-811v-1229h-258v1489h1069q253 0 397 -146t144 -397q0 -183 -80.5 -310t-226.5 -183z" />
    <glyph glyph-name="S" unicode="S" horiz-adv-x="1802" 
d="M1245 0h-1116v260h1116q103 0 160 53t57 142q0 95 -56 143.5t-161 48.5h-684q-208 0 -331.5 118.5t-123.5 305.5q0 186 121 302t338 116h1069v-260h-1069q-89 0 -138.5 -48.5t-49.5 -133.5t50 -133t136 -48h682q228 0 345.5 -107.5t117.5 -322.5q0 -196 -119 -316
t-344 -120z" />
    <glyph glyph-name="T" unicode="T" horiz-adv-x="1474" 
d="M866 0h-260v1229h-565v260h1391v-260h-566v-1229z" />
    <glyph glyph-name="U" unicode="U" horiz-adv-x="1820" 
d="M1460 657v832h254v-832q0 -351 -188.5 -514t-616.5 -163q-425 0 -614 163.5t-189 513.5v832h269v-832q0 -153 50.5 -243t169 -134t323.5 -44t323.5 44t168.5 134t50 243z" />
    <glyph glyph-name="V" unicode="V" 
d="M885 63l-856 1426h317l676 -1147l674 1147h299l-858 -1426q-50 -83 -125 -83q-77 0 -127 83z" />
    <glyph glyph-name="W" unicode="W" horiz-adv-x="2596" 
d="M1528 61l-230 437l-231 -437q-43 -81 -133 -81q-89 0 -135 81l-770 1428h311l602 -1145l225 406l-387 739h314l575 -1145l606 1145h291l-770 -1428q-46 -81 -135 -81q-90 0 -133 81z" />
    <glyph glyph-name="X" unicode="X" horiz-adv-x="2048" 
d="M1991 0h-365l-625 608l-618 -608h-338l799 774l-742 715h359l567 -551l559 551h338l-741 -715z" />
    <glyph glyph-name="Y" unicode="Y" horiz-adv-x="1896" 
d="M1077 0h-260v565l-790 924h350l579 -686l582 686h332l-793 -924v-565z" />
    <glyph glyph-name="Z" unicode="Z" horiz-adv-x="1642" 
d="M1544 0h-1315q-62 0 -104.5 35t-42.5 98q0 58 53 111l989 997h-1024v248h1303q61 0 104 -35t43 -98q0 -58 -53 -111l-989 -997h1036v-248z" />
    <glyph glyph-name="bracketleft" unicode="[" horiz-adv-x="681" 
d="M553 -182h-350v1874h350v-170h-180v-1538h180v-166z" />
    <glyph glyph-name="backslash" unicode="\" horiz-adv-x="911" 
d="M891 0h-180l-691 1489h173z" />
    <glyph glyph-name="bracketright" unicode="]" horiz-adv-x="681" 
d="M479 -182h-350v166h178v1538h-178v170h350v-1874z" />
    <glyph glyph-name="asciicircum" unicode="^" horiz-adv-x="1144" 
d="M1016 614h-176l-267 674l-270 -674h-174l350 824q29 69 94 69q31 0 58.5 -18.5t40.5 -50.5z" />
    <glyph glyph-name="underscore" unicode="_" horiz-adv-x="1368" 
d="M1384 -330h-1384v121h1384v-121z" />
    <glyph glyph-name="grave" unicode="`" horiz-adv-x="741" 
d="M633 1581l-524 113v161l524 -157v-117z" />
    <glyph glyph-name="a" unicode="a" 
d="M1995 0h-314l-223 375h-704l123 211h456l-332 557l-675 -1143h-297l856 1425q51 84 127 84q74 0 125 -84z" />
    <glyph glyph-name="b" unicode="b" horiz-adv-x="1824" 
d="M1247 0h-1120v1489h1090q223 0 353 -99t130 -286q0 -132 -57.5 -210.5t-149.5 -107.5q105 -33 169 -121t64 -214q0 -204 -130.5 -327.5t-348.5 -123.5zM1237 647h-662v219h644q112 0 164.5 42.5t52.5 138.5q0 46 -15 79.5t-40.5 53t-68 31t-87 15t-107.5 3.5h-731v-971
h754q321 0 321 197q0 92 -58 142t-167 50z" />
    <glyph glyph-name="c" unicode="c" horiz-adv-x="1697" 
d="M1616 0h-807q-205 0 -370.5 99.5t-259 273.5t-93.5 387q0 215 94 382t258 257t371 90h807v-260h-807q-201 0 -332 -135t-131 -346t131 -349.5t332 -138.5h807v-260z" />
    <glyph glyph-name="d" unicode="d" horiz-adv-x="1800" 
d="M991 0h-862v1489h862q208 0 373 -91.5t258.5 -258t93.5 -379.5q0 -214 -93 -387.5t-259 -273t-373 -99.5zM387 260h604q201 0 333 138.5t132 349.5q0 210 -131.5 345.5t-333.5 135.5h-604v-969z" />
    <glyph glyph-name="e" unicode="e" horiz-adv-x="1554" 
d="M1460 0h-1331v1489h1329v-260h-1071v-969h1073v-260zM1403 647h-825v219h825v-219z" />
    <glyph glyph-name="f" unicode="f" horiz-adv-x="1443" 
d="M387 0h-258v1489h1264v-260h-1006v-1229zM1331 616h-753v228h753v-228z" />
    <glyph glyph-name="g" unicode="g" horiz-adv-x="1818" 
d="M1708 0h-899q-205 0 -370.5 99.5t-259 273.5t-93.5 387q0 215 94 382t258 257t371 90h807v-260h-807q-201 0 -332 -135t-131 -346t131 -349.5t332 -138.5h637v387h-672v219h934v-866z" />
    <glyph glyph-name="h" unicode="h" horiz-adv-x="1716" 
d="M1587 -6h-260v647h-749v231h749v617h260v-1495zM389 -6h-260v1495h260v-1495z" />
    <glyph glyph-name="i" unicode="i" horiz-adv-x="546" 
d="M403 0h-260v1489h260v-1489z" />
    <glyph glyph-name="j" unicode="j" horiz-adv-x="1449" 
d="M594 0h-545v260h545q259 0 374 100t115 318v811h260v-811q0 -347 -181 -512.5t-568 -165.5z" />
    <glyph glyph-name="k" unicode="k" horiz-adv-x="1792" 
d="M1753 0h-397l-834 655q-31 24 -42 49.5t-11 59.5q0 36 14 63t52 56l788 606h399l-974 -727zM389 0h-260v1489h260v-1489z" />
    <glyph glyph-name="l" unicode="l" horiz-adv-x="1447" 
d="M1391 0h-1262v1489h260v-1229h1002v-260z" />
    <glyph glyph-name="m" unicode="m" horiz-adv-x="2283" 
d="M2241 0h-259l-284 1047l-422 -969q-45 -98 -133 -98q-91 0 -133 98l-420 969l-285 -1047h-256l383 1401q26 106 129 106q42 0 77.5 -23t53.5 -65l459 -1052l459 1052q39 88 125 88q96 0 125 -106z" />
    <glyph glyph-name="n" unicode="n" horiz-adv-x="1787" 
d="M1417 37l-1046 1053v-1090h-248v1352q0 72 35.5 113.5t97.5 41.5q58 0 111 -53l1050 -1042v1089h248v-1364q0 -72 -35.5 -113.5t-93.5 -41.5q-64 0 -119 55z" />
    <glyph glyph-name="o" unicode="o" horiz-adv-x="1982" 
d="M1171 0h-362q-205 0 -370.5 99.5t-259 273.5t-93.5 387q0 215 94 382t258 257t371 90h362q213 0 379 -91.5t258.5 -258t92.5 -379.5q0 -214 -93.5 -387.5t-260.5 -273t-376 -99.5zM809 260h362q205 0 337 138.5t132 349.5t-132 346t-337 135h-362q-201 0 -332 -135
t-131 -346t131 -349.5t332 -138.5z" />
    <glyph glyph-name="p" unicode="p" horiz-adv-x="1775" 
d="M1176 414h-598v252h598q135 0 212.5 77t77.5 205q0 130 -77 205.5t-213 75.5h-789v-1229h-258v1489h1047q256 0 400 -143t144 -390q0 -245 -145 -393.5t-399 -148.5z" />
    <glyph glyph-name="q" unicode="q" horiz-adv-x="1982" 
d="M1974 0h-346l-102 88q-163 -88 -355 -88h-362q-205 0 -370.5 99.5t-259 273.5t-93.5 387q0 215 94 382t258 257t371 90h362q213 0 379 -91.5t258.5 -258t92.5 -379.5q0 -160 -54.5 -300t-152.5 -243zM1300 276l-430 338h344l277 -233q70 67 109.5 162t39.5 205
q0 211 -132 346t-337 135h-362q-201 0 -332 -135t-131 -346t131 -349.5t332 -138.5h362q63 0 129 16z" />
    <glyph glyph-name="r" unicode="r" horiz-adv-x="1886" 
d="M1880 0h-369l-376 414h-557v229h620q139 0 212 77t73 222q0 142 -74.5 214.5t-210.5 72.5h-811v-1229h-258v1489h1069q253 0 397 -146t144 -397q0 -183 -80.5 -310t-226.5 -183z" />
    <glyph glyph-name="s" unicode="s" horiz-adv-x="1802" 
d="M1245 0h-1116v260h1116q103 0 160 53t57 142q0 95 -56 143.5t-161 48.5h-684q-208 0 -331.5 118.5t-123.5 305.5q0 186 121 302t338 116h1069v-260h-1069q-89 0 -138.5 -48.5t-49.5 -133.5t50 -133t136 -48h682q228 0 345.5 -107.5t117.5 -322.5q0 -196 -119 -316
t-344 -120z" />
    <glyph glyph-name="t" unicode="t" horiz-adv-x="1474" 
d="M866 0h-260v1229h-565v260h1391v-260h-566v-1229z" />
    <glyph glyph-name="u" unicode="u" horiz-adv-x="1820" 
d="M1460 657v832h254v-832q0 -351 -188.5 -514t-616.5 -163q-425 0 -614 163.5t-189 513.5v832h269v-832q0 -153 50.5 -243t169 -134t323.5 -44t323.5 44t168.5 134t50 243z" />
    <glyph glyph-name="v" unicode="v" 
d="M885 63l-856 1426h317l676 -1147l674 1147h299l-858 -1426q-50 -83 -125 -83q-77 0 -127 83z" />
    <glyph glyph-name="w" unicode="w" horiz-adv-x="2596" 
d="M1528 61l-230 437l-231 -437q-43 -81 -133 -81q-89 0 -135 81l-770 1428h311l602 -1145l225 406l-387 739h314l575 -1145l606 1145h291l-770 -1428q-46 -81 -135 -81q-90 0 -133 81z" />
    <glyph glyph-name="x" unicode="x" horiz-adv-x="2048" 
d="M1991 0h-365l-625 608l-618 -608h-338l799 774l-742 715h359l567 -551l559 551h338l-741 -715z" />
    <glyph glyph-name="y" unicode="y" horiz-adv-x="1896" 
d="M1077 0h-260v565l-790 924h350l579 -686l582 686h332l-793 -924v-565z" />
    <glyph glyph-name="z" unicode="z" horiz-adv-x="1642" 
d="M1544 0h-1315q-62 0 -104.5 35t-42.5 98q0 58 53 111l989 997h-1024v248h1303q61 0 104 -35t43 -98q0 -58 -53 -111l-989 -997h1036v-248z" />
    <glyph glyph-name="braceleft" unicode="{" horiz-adv-x="690" 
d="M559 -182h-94q-107 0 -170.5 63t-63.5 176v570q0 27 -22.5 39.5t-81.5 13.5v141q58 1 81 13t23 38v576q0 114 63.5 179t170.5 65h94v-144q-158 0 -158 -135v-495q0 -71 -18 -111t-61 -57q47 -19 63 -56.5t16 -109.5v-492q0 -77 38.5 -104t119.5 -27v-143z" />
    <glyph glyph-name="bar" unicode="|" horiz-adv-x="608" 
d="M381 -182h-154v1874h154v-1874z" />
    <glyph glyph-name="braceright" unicode="}" horiz-adv-x="690" 
d="M221 -182h-94v143q81 0 119.5 27t38.5 104v492q0 72 16.5 109.5t63.5 56.5q-43 17 -61.5 57t-18.5 111v495q0 135 -158 135v144h94q107 0 170.5 -65t63.5 -179v-576q0 -26 23 -38t81 -13v-141q-59 -1 -81.5 -13.5t-22.5 -39.5v-570q0 -113 -63.5 -176t-170.5 -63z" />
    <glyph glyph-name="asciitilde" unicode="~" horiz-adv-x="1415" 
d="M1286 899v-190q-114 -105 -297 -105q-66 0 -143 21.5t-137 48t-138 48t-145 21.5q-82 0 -163.5 -34.5t-131.5 -87.5v188q112 109 295 109q66 0 143.5 -22t137 -48t137.5 -48t145 -22q83 0 166 36.5t131 84.5z" />
    <glyph glyph-name="nbspace" unicode="&#xa0;" horiz-adv-x="602" 
 />
    <glyph glyph-name="exclamdown" unicode="&#xa1;" horiz-adv-x="610" 
d="M190 1012h246v-1012h-246v1012zM309 1509q59 0 99.5 -39.5t40.5 -101.5q0 -59 -40.5 -98t-99.5 -39q-61 0 -100 38.5t-39 98.5q0 63 38.5 102t100.5 39z" />
    <glyph glyph-name="cent" unicode="&#xa2;" horiz-adv-x="1417" 
d="M1315 145h-385v-145h-115v145h-147q-166 0 -299.5 80t-208 219.5t-74.5 311.5q0 263 163 425t419 162h147v146h115v-146h385v-210h-385v-775h385v-213zM815 358v775h-147q-162 0 -267.5 -108.5t-105.5 -279.5q0 -167 106 -277t267 -110h147z" />
    <glyph glyph-name="sterling" unicode="&#xa3;" horiz-adv-x="1452" 
d="M1370 0h-1311v260h183v410h-103v192h103v187q0 96 28 175.5t83 139t143 92.5t202 33h453v-260h-414q-120 0 -185 -52.5t-65 -160.5v-154h414v-192h-414v-410h883v-260z" />
    <glyph glyph-name="yen" unicode="&#xa5;" horiz-adv-x="1611" 
d="M1362 152h-434v-152h-246v152h-422v176h422v180h-422v176h318l-539 805h311l459 -715l444 715h306l-529 -805h332v-176h-434v-180h434v-176z" />
    <glyph glyph-name="brokenbar" unicode="&#xa6;" horiz-adv-x="608" 
d="M381 1692v-832h-154v832h154zM381 -182h-154v815h154v-815z" />
    <glyph glyph-name="section" unicode="&#xa7;" horiz-adv-x="1583" 
d="M1038 -412h-776v248h733q95 0 157 45t62 133q0 79 -47 127.5t-129 48.5h-501q-181 0 -273 84.5t-92 229.5q0 184 121 256q-90 43 -141.5 132.5t-51.5 203.5q0 170 113 281.5t311 111.5h774v-248h-731q-98 0 -159.5 -45t-61.5 -133q0 -79 47.5 -127.5t128.5 -48.5h504
q182 0 273.5 -84t91.5 -232q0 -85 -31.5 -151.5t-91.5 -104.5q90 -42 143 -128.5t53 -198.5q0 -175 -112.5 -287.5t-313.5 -112.5zM985 696h-420q-82 0 -125 -42t-43 -111q0 -75 46.5 -118.5t134.5 -43.5h417q82 0 125 42.5t43 111.5q0 75 -46 118t-132 43z" />
    <glyph glyph-name="dieresis" unicode="&#xa8;" horiz-adv-x="804" 
d="M317 1737q0 -42 -29 -67t-73 -25q-47 0 -76.5 25t-29.5 67t29.5 67t76.5 25q44 0 73 -25t29 -67zM696 1737q0 -42 -29.5 -67t-74.5 -25t-75 25t-30 67t30 67t75 25t74.5 -25t29.5 -67z" />
    <glyph glyph-name="copyright" unicode="&#xa9;" horiz-adv-x="1697" 
d="M850 -20q-155 0 -296.5 60.5t-244 163t-163 244.5t-60.5 297t60.5 296.5t163 243.5t243.5 162t297 60q155 0 296.5 -60t243.5 -162t162 -243.5t60 -296.5q0 -125 -38.5 -241.5t-108.5 -210.5t-164 -165t-210.5 -109.5t-240.5 -38.5zM854 49q187 0 346 93t251.5 253
t92.5 348q0 189 -92.5 349.5t-251.5 254t-346 93.5q-191 0 -351 -93.5t-251.5 -253.5t-91.5 -350q0 -141 54 -269.5t146.5 -221.5t221.5 -148t272 -55zM1092 389h-250q-162 0 -270.5 103t-108.5 256q0 155 107 251.5t272 96.5h250v-97h-250q-117 0 -194 -72t-77 -188
q0 -111 76.5 -183.5t194.5 -72.5h250v-94z" />
    <glyph glyph-name="ordfeminine" unicode="&#xaa;" horiz-adv-x="1236" 
d="M1159 614h-172l-123 207h-389l68 115h252l-183 307l-372 -629h-162l471 785q25 45 69 45q43 0 68 -45z" />
    <glyph glyph-name="guillemotleft" unicode="&#xab;" horiz-adv-x="1288" 
d="M668 379l-547 330q-35 21 -35 51q0 34 35 55l547 328v-129l-447 -256l447 -258v-121zM1204 379l-549 330q-34 20 -34 51q0 34 34 55l549 328v-129l-446 -256l446 -258v-121z" />
    <glyph glyph-name="registered" unicode="&#xae;" horiz-adv-x="1198" 
d="M1069 1036q0 -128 -63 -236t-171.5 -170.5t-236.5 -62.5q-195 0 -332 137t-137 332q0 196 137 333.5t332 137.5t333 -137.5t138 -333.5zM993 1036q0 166 -116 283t-279 117t-280 -117.5t-117 -282.5q0 -162 117 -277.5t280 -115.5t279 115t116 278zM858 868h-104
l-103 103h-108v65h133q35 0 54.5 19t19.5 53q0 33 -19.5 52.5t-54.5 19.5h-219v-312h-72v381h291q68 0 106.5 -37.5t38.5 -101.5q0 -92 -82 -129z" />
    <glyph glyph-name="macron" unicode="&#xaf;" horiz-adv-x="741" 
d="M633 1663h-524v119h524v-119z" />
    <glyph glyph-name="degree" unicode="&#xb0;" horiz-adv-x="739" 
d="M653 1225q0 -281 -286 -281q-281 0 -281 281q0 282 281 282q286 0 286 -282zM537 1223q0 168 -170 168q-168 0 -168 -166q0 -164 168 -164q170 0 170 162z" />
    <glyph glyph-name="plusminus" unicode="&#xb1;" horiz-adv-x="1413" 
d="M795 178h-174v494h-492v172h492v491h174v-491h489v-172h-489v-494zM1284 -106h-1155v172h1155v-172z" />
    <glyph glyph-name="twosuperior" unicode="&#xb2;" horiz-adv-x="905" 
d="M809 768h-715v217q0 215 230 215h270q42 0 68 24.5t26 65.5q0 43 -25.5 67.5t-68.5 24.5h-494v129h494q108 0 167.5 -57.5t59.5 -150.5q0 -94 -61.5 -152.5t-165.5 -58.5h-270q-107 0 -107 -97v-98h592v-129z" />
    <glyph glyph-name="threesuperior" unicode="&#xb3;" horiz-adv-x="907" 
d="M588 768h-510v129h477q63 0 101 26t38 72t-28.5 71.5t-83.5 25.5h-328v108h319q56 0 82.5 21.5t26.5 68.5q0 50 -33.5 71t-101.5 21h-467v129h493q110 0 175 -49.5t65 -142.5q0 -66 -28.5 -105.5t-73.5 -52.5q53 -18 84.5 -61.5t31.5 -106.5q0 -102 -65.5 -163.5
t-173.5 -61.5z" />
    <glyph glyph-name="acute" unicode="&#xb4;" horiz-adv-x="741" 
d="M633 1694l-524 -113v117l524 157v-161z" />
    <glyph glyph-name="paragraph" unicode="&#xb6;" horiz-adv-x="1288" 
d="M1159 -207h-162v1532h-260v-1532h-164v1018h-139q-159 0 -250.5 94t-91.5 248q0 155 91 245.5t251 90.5h725v-1696z" />
    <glyph glyph-name="periodcentered" unicode="&#xb7;" horiz-adv-x="536" 
d="M408 737q0 -59 -41 -99t-101 -40q-58 0 -97.5 40t-39.5 99t39.5 99.5t97.5 40.5q60 0 101 -40.5t41 -99.5z" />
    <glyph glyph-name="cedilla" unicode="&#xb8;" horiz-adv-x="448" 
d="M223 -412l-135 316h272z" />
    <glyph glyph-name="onesuperior" unicode="&#xb9;" horiz-adv-x="454" 
d="M360 768h-129v500q0 114 -104 114h-72v129h72q112 0 172.5 -63.5t60.5 -179.5v-500z" />
    <glyph glyph-name="ordmasculine" unicode="&#xba;" horiz-adv-x="1212" 
d="M707 614h-201q-170 0 -283.5 119.5t-113.5 298.5t112.5 290.5t284.5 111.5h201q177 0 288 -112t111 -290q0 -179 -113 -298.5t-286 -119.5zM506 758h201q113 0 185.5 75.5t72.5 192.5q0 115 -72.5 189.5t-185.5 74.5h-201q-110 0 -182 -74t-72 -190q0 -117 72 -192.5
t182 -75.5z" />
    <glyph glyph-name="guillemotright" unicode="&#xbb;" horiz-adv-x="1288" 
d="M1167 709l-546 -330v121l446 258l-446 256v129l546 -328q37 -23 37 -55t-37 -51zM635 709l-549 -330v121l446 258l-446 256v129l549 -328q35 -21 35 -55q0 -30 -35 -51z" />
    <glyph glyph-name="onequarter" unicode="&#xbc;" horiz-adv-x="1990" 
d="M561 768h-129v500q0 114 -104 114h-72v129h72q112 0 172.5 -63.5t60.5 -179.5v-500zM264 -137h-178l1346 1716h174zM1796 -20h-129v198h-309q-244 0 -244 238v307h129v-305q0 -63 27.5 -89t87.5 -26h309v420h129v-420h109v-125h-109v-198z" />
    <glyph glyph-name="onehalf" unicode="&#xbd;" horiz-adv-x="1941" 
d="M561 768h-129v500q0 114 -104 114h-72v129h72q112 0 172.5 -63.5t60.5 -179.5v-500zM264 -137h-178l1346 1716h174zM1843 -20h-715v217q0 215 230 215h270q42 0 68 24.5t26 65.5q0 43 -25.5 67.5t-68.5 24.5h-493v129h493q108 0 167.5 -58t59.5 -151q0 -94 -61.5 -152.5
t-165.5 -58.5h-270q-107 0 -107 -96v-98h592v-129z" />
    <glyph glyph-name="threequarters" unicode="&#xbe;" horiz-adv-x="2107" 
d="M596 768h-510v129h477q63 0 101 26t38 72t-28.5 71.5t-83.5 25.5h-328v108h320q56 0 82 21.5t26 68.5q0 50 -33.5 71t-101.5 21h-467v129h494q110 0 174.5 -49.5t64.5 -142.5q0 -66 -28.5 -105.5t-73.5 -52.5q53 -18 85 -62t32 -106q0 -101 -65.5 -163t-174.5 -62z
M381 -137h-178l1345 1716h174zM1913 -20h-129v198h-309q-244 0 -244 238v307h129v-305q0 -63 27.5 -89t87.5 -26h309v420h129v-420h108v-125h-108v-198z" />
    <glyph glyph-name="questiondown" unicode="&#xbf;" horiz-adv-x="1589" 
d="M508 842h506q96 0 96 86v82h246v-88q0 -140 -86.5 -219.5t-255.5 -79.5h-502q-87 0 -137.5 -48.5t-50.5 -132.5q0 -85 50 -133.5t138 -48.5h983v-260h-983q-215 0 -335 116t-120 302q0 188 122 306t329 118zM1229 1505q59 0 99 -39.5t40 -101.5q0 -59 -40 -98t-99 -39
q-61 0 -100 38.5t-39 98.5q0 63 38.5 102t100.5 39z" />
    <glyph glyph-name="Agrave" unicode="&#xc0;" 
d="M1995 0h-314l-223 375h-704l123 211h456l-332 557l-675 -1143h-297l856 1425q51 84 127 84q74 0 125 -84zM1212 1581l-524 113v161l524 -157v-117z" />
    <glyph glyph-name="Aacute" unicode="&#xc1;" 
d="M1995 0h-314l-223 375h-704l123 211h456l-332 557l-675 -1143h-297l856 1425q51 84 127 84q74 0 125 -84zM1335 1694l-524 -113v117l524 157v-161z" />
    <glyph glyph-name="Acircumflex" unicode="&#xc2;" 
d="M1995 0h-314l-223 375h-704l123 211h456l-332 557l-675 -1143h-297l856 1425q51 84 127 84q74 0 125 -84zM1292 1581h-143l-129 199h-16l-130 -199h-141l187 274h186z" />
    <glyph glyph-name="Atilde" unicode="&#xc3;" 
d="M1995 0h-314l-223 375h-704l123 211h456l-332 557l-675 -1143h-297l856 1425q51 84 127 84q74 0 125 -84zM1274 1808v-122q-48 -60 -135 -60q-45 0 -127.5 40t-128.5 40q-38 0 -75.5 -21.5t-57.5 -50.5v121q49 62 133 62q47 0 129 -41t127 -41q40 0 77 21t58 52z" />
    <glyph glyph-name="Adieresis" unicode="&#xc4;" 
d="M1995 0h-314l-223 375h-704l123 211h456l-332 557l-675 -1143h-297l856 1425q51 84 127 84q74 0 125 -84zM928 1737q0 -42 -29.5 -67t-73.5 -25q-47 0 -76.5 25t-29.5 67t29.5 67t76.5 25q44 0 73.5 -25t29.5 -67zM1307 1737q0 -42 -30 -67t-75 -25t-74.5 25t-29.5 67
t29.5 67t74.5 25t75 -25t30 -67z" />
    <glyph glyph-name="Aring" unicode="&#xc5;" 
d="M1995 0h-314l-223 375h-704l123 211h456l-332 557l-675 -1143h-297l856 1425q51 84 127 84q74 0 125 -84zM1063 1581h-105q-90 0 -149 60.5t-59 150.5q0 92 58.5 148.5t149.5 56.5h105q93 0 152 -56.5t59 -148.5q0 -90 -59.5 -150.5t-151.5 -60.5zM958 1657h105
q58 0 95.5 38t37.5 95t-37 93t-96 36h-105q-57 0 -94 -36t-37 -93q0 -58 36.5 -95.5t94.5 -37.5z" />
    <glyph glyph-name="AE" unicode="&#xc6;" horiz-adv-x="2754" 
d="M2660 0h-1247v362h-676l127 216h549v651h-391l-700 -1229h-293l815 1401q53 88 129 88h1683v-260h-985v-969h989v-260zM2601 647h-739v219h739v-219z" />
    <glyph glyph-name="Ccedilla" unicode="&#xc7;" horiz-adv-x="1697" 
d="M1616 0h-807q-205 0 -370.5 99.5t-259 273.5t-93.5 387q0 215 94 382t258 257t371 90h807v-260h-807q-201 0 -332 -135t-131 -346t131 -349.5t332 -138.5h807v-260zM889 -412l-135 316h272z" />
    <glyph glyph-name="Egrave" unicode="&#xc8;" horiz-adv-x="1554" 
d="M1460 0h-1331v1489h1329v-260h-1071v-969h1073v-260zM1403 647h-825v219h825v-219zM977 1581l-524 113v161l524 -157v-117z" />
    <glyph glyph-name="Eacute" unicode="&#xc9;" horiz-adv-x="1554" 
d="M1460 0h-1331v1489h1329v-260h-1071v-969h1073v-260zM1403 647h-825v219h825v-219zM1100 1694l-525 -113v117l525 157v-161z" />
    <glyph glyph-name="Ecircumflex" unicode="&#xca;" horiz-adv-x="1554" 
d="M1460 0h-1331v1489h1329v-260h-1071v-969h1073v-260zM1403 647h-825v219h825v-219zM1057 1581h-144l-129 199h-16l-129 -199h-141l186 274h186z" />
    <glyph glyph-name="Edieresis" unicode="&#xcb;" horiz-adv-x="1554" 
d="M1460 0h-1331v1489h1329v-260h-1071v-969h1073v-260zM1403 647h-825v219h825v-219zM692 1737q0 -42 -29 -67t-73 -25q-47 0 -77 25t-30 67t30 67t77 25q44 0 73 -25t29 -67zM1071 1737q0 -42 -29.5 -67t-74.5 -25t-75 25t-30 67t30 67t75 25t74.5 -25t29.5 -67z" />
    <glyph glyph-name="Igrave" unicode="&#xcc;" horiz-adv-x="546" 
d="M403 0h-260v1489h260v-1489zM475 1581l-524 113v161l524 -157v-117z" />
    <glyph glyph-name="Iacute" unicode="&#xcd;" horiz-adv-x="546" 
d="M403 0h-260v1489h260v-1489zM598 1694l-524 -113v117l524 157v-161z" />
    <glyph glyph-name="Icircumflex" unicode="&#xce;" horiz-adv-x="546" 
d="M403 0h-260v1489h260v-1489zM553 1581h-143l-129 199h-17l-129 -199h-141l186 274h187z" />
    <glyph glyph-name="Idieresis" unicode="&#xcf;" horiz-adv-x="546" 
d="M403 0h-260v1489h260v-1489zM188 1737q0 -42 -29 -67t-73 -25q-47 0 -76.5 25t-29.5 67t29.5 67t76.5 25q44 0 73 -25t29 -67zM567 1737q0 -42 -29.5 -67t-74.5 -25t-75 25t-30 67t30 67t75 25t74.5 -25t29.5 -67z" />
    <glyph glyph-name="Eth" unicode="&#xd0;" horiz-adv-x="1796" 
d="M987 0h-862v647h-105v219h105v623h862q209 0 374.5 -91.5t259 -258t93.5 -379.5q0 -214 -93 -387.5t-259.5 -273t-374.5 -99.5zM969 647h-586v-387h604q201 0 333 138.5t132 349.5q0 210 -131.5 345.5t-333.5 135.5h-604v-363h586v-219z" />
    <glyph glyph-name="Ntilde" unicode="&#xd1;" horiz-adv-x="1787" 
d="M1417 37l-1046 1053v-1090h-248v1352q0 72 35.5 113.5t97.5 41.5q58 0 111 -53l1050 -1042v1089h248v-1364q0 -72 -35.5 -113.5t-93.5 -41.5q-64 0 -119 55zM1155 1808v-122q-48 -60 -135 -60q-45 0 -127.5 40t-128.5 40q-38 0 -75.5 -21.5t-57.5 -50.5v121q49 62 133 62
q48 0 130 -41t126 -41q40 0 77 21t58 52z" />
    <glyph glyph-name="Ograve" unicode="&#xd2;" horiz-adv-x="1982" 
d="M1171 0h-362q-205 0 -370.5 99.5t-259 273.5t-93.5 387q0 215 94 382t258 257t371 90h362q213 0 379 -91.5t258.5 -258t92.5 -379.5q0 -214 -93.5 -387.5t-260.5 -273t-376 -99.5zM809 260h362q205 0 337 138.5t132 349.5t-132 346t-337 135h-362q-201 0 -332 -135
t-131 -346t131 -349.5t332 -138.5zM1192 1581l-524 113v161l524 -157v-117z" />
    <glyph glyph-name="Oacute" unicode="&#xd3;" horiz-adv-x="1982" 
d="M1171 0h-362q-205 0 -370.5 99.5t-259 273.5t-93.5 387q0 215 94 382t258 257t371 90h362q213 0 379 -91.5t258.5 -258t92.5 -379.5q0 -214 -93.5 -387.5t-260.5 -273t-376 -99.5zM809 260h362q205 0 337 138.5t132 349.5t-132 346t-337 135h-362q-201 0 -332 -135
t-131 -346t131 -349.5t332 -138.5zM1315 1694l-524 -113v117l524 157v-161z" />
    <glyph glyph-name="Ocircumflex" unicode="&#xd4;" horiz-adv-x="1982" 
d="M1171 0h-362q-205 0 -370.5 99.5t-259 273.5t-93.5 387q0 215 94 382t258 257t371 90h362q213 0 379 -91.5t258.5 -258t92.5 -379.5q0 -214 -93.5 -387.5t-260.5 -273t-376 -99.5zM809 260h362q205 0 337 138.5t132 349.5t-132 346t-337 135h-362q-201 0 -332 -135
t-131 -346t131 -349.5t332 -138.5zM1270 1581h-144l-129 199h-16l-129 -199h-141l186 274h186z" />
    <glyph glyph-name="Otilde" unicode="&#xd5;" horiz-adv-x="1982" 
d="M1171 0h-362q-205 0 -370.5 99.5t-259 273.5t-93.5 387q0 215 94 382t258 257t371 90h362q213 0 379 -91.5t258.5 -258t92.5 -379.5q0 -214 -93.5 -387.5t-260.5 -273t-376 -99.5zM809 260h362q205 0 337 138.5t132 349.5t-132 346t-337 135h-362q-201 0 -332 -135
t-131 -346t131 -349.5t332 -138.5zM1253 1808v-122q-48 -60 -135 -60q-45 0 -127.5 40t-128.5 40q-38 0 -75.5 -21.5t-57.5 -50.5v121q49 62 133 62q48 0 130 -41t126 -41q40 0 77 21t58 52z" />
    <glyph glyph-name="Odieresis" unicode="&#xd6;" horiz-adv-x="1982" 
d="M1171 0h-362q-205 0 -370.5 99.5t-259 273.5t-93.5 387q0 215 94 382t258 257t371 90h362q213 0 379 -91.5t258.5 -258t92.5 -379.5q0 -214 -93.5 -387.5t-260.5 -273t-376 -99.5zM809 260h362q205 0 337 138.5t132 349.5t-132 346t-337 135h-362q-201 0 -332 -135
t-131 -346t131 -349.5t332 -138.5zM905 1737q0 -42 -29 -67t-73 -25q-47 0 -77 25t-30 67t30 67t77 25q44 0 73 -25t29 -67zM1284 1737q0 -42 -29.5 -67t-74.5 -25t-75 25t-30 67t30 67t75 25t74.5 -25t29.5 -67z" />
    <glyph glyph-name="multiply" unicode="&#xd7;" horiz-adv-x="1413" 
d="M1178 410l-123 -123l-350 348l-347 -346l-122 121l348 348l-348 346l122 125l349 -348l346 346l121 -123l-347 -346z" />
    <glyph glyph-name="Oslash" unicode="&#xd8;" horiz-adv-x="1982" 
d="M1171 0h-362q-164 0 -309 68l-144 -170l-77 67l129 154q-150 101 -236 269t-86 372q0 215 94 382t258 257t371 90h362q181 0 338 -72l146 172l78 -67l-134 -156q143 -97 222.5 -253.5t79.5 -352.5q0 -214 -93.5 -387.5t-260.5 -273t-376 -99.5zM578 319l751 885
q-87 25 -158 25h-362q-201 0 -332 -135t-131 -346q0 -143 62 -255.5t170 -173.5zM809 260h362q205 0 337 138.5t132 349.5q0 135 -57 242t-158 169l-747 -883q66 -16 131 -16z" />
    <glyph glyph-name="Ugrave" unicode="&#xd9;" horiz-adv-x="1820" 
d="M1460 657v832h254v-832q0 -351 -188.5 -514t-616.5 -163q-425 0 -614 163.5t-189 513.5v832h269v-832q0 -153 50.5 -243t169 -134t323.5 -44t323.5 44t168.5 134t50 243zM1110 1581l-524 113v161l524 -157v-117z" />
    <glyph glyph-name="Uacute" unicode="&#xda;" horiz-adv-x="1820" 
d="M1460 657v832h254v-832q0 -351 -188.5 -514t-616.5 -163q-425 0 -614 163.5t-189 513.5v832h269v-832q0 -153 50.5 -243t169 -134t323.5 -44t323.5 44t168.5 134t50 243zM1233 1694l-524 -113v117l524 157v-161z" />
    <glyph glyph-name="Ucircumflex" unicode="&#xdb;" horiz-adv-x="1820" 
d="M1460 657v832h254v-832q0 -351 -188.5 -514t-616.5 -163q-425 0 -614 163.5t-189 513.5v832h269v-832q0 -153 50.5 -243t169 -134t323.5 -44t323.5 44t168.5 134t50 243zM1190 1581h-143l-129 199h-17l-129 -199h-141l186 274h187z" />
    <glyph glyph-name="Udieresis" unicode="&#xdc;" horiz-adv-x="1820" 
d="M1460 657v832h254v-832q0 -351 -188.5 -514t-616.5 -163q-425 0 -614 163.5t-189 513.5v832h269v-832q0 -153 50.5 -243t169 -134t323.5 -44t323.5 44t168.5 134t50 243zM825 1737q0 -42 -29 -67t-73 -25q-47 0 -77 25t-30 67t30 67t77 25q44 0 73 -25t29 -67zM1204 1737
q0 -42 -29.5 -67t-74.5 -25t-75 25t-30 67t30 67t75 25t74.5 -25t29.5 -67z" />
    <glyph glyph-name="Yacute" unicode="&#xdd;" horiz-adv-x="1896" 
d="M1077 0h-260v565l-790 924h350l579 -686l582 686h332l-793 -924v-565zM1280 1694l-524 -113v117l524 157v-161z" />
    <glyph glyph-name="Thorn" unicode="&#xde;" horiz-adv-x="1726" 
d="M1114 186h-536v250h536q138 0 217.5 81t79.5 216q0 134 -79 211.5t-218 77.5h-727v-1022h-258v1489h258v-207h727q258 0 405.5 -146t147.5 -395q0 -252 -148 -403.5t-405 -151.5z" />
    <glyph glyph-name="germandbls" unicode="&#xdf;" horiz-adv-x="3604" 
d="M1245 0h-1116v260h1116q103 0 160 53t57 142q0 95 -56 143.5t-161 48.5h-684q-208 0 -331.5 118.5t-123.5 305.5q0 186 121 302t338 116h1069v-260h-1069q-89 0 -138.5 -48.5t-49.5 -133.5t50 -133t136 -48h682q228 0 345.5 -107.5t117.5 -322.5q0 -196 -119 -316
t-344 -120zM3047 0h-1116v260h1116q103 0 160.5 53t57.5 142q0 94 -56.5 143t-161.5 49h-684q-208 0 -331 118.5t-123 305.5q0 186 120.5 302t337.5 116h1070v-260h-1070q-89 0 -138.5 -48.5t-49.5 -133.5t50 -133t136 -48h682q228 0 345.5 -107.5t117.5 -322.5
q0 -196 -119 -316t-344 -120z" />
    <glyph glyph-name="agrave" unicode="&#xe0;" 
d="M1995 0h-314l-223 375h-704l123 211h456l-332 557l-675 -1143h-297l856 1425q51 84 127 84q74 0 125 -84zM1212 1581l-524 113v161l524 -157v-117z" />
    <glyph glyph-name="aacute" unicode="&#xe1;" 
d="M1995 0h-314l-223 375h-704l123 211h456l-332 557l-675 -1143h-297l856 1425q51 84 127 84q74 0 125 -84zM1335 1694l-524 -113v117l524 157v-161z" />
    <glyph glyph-name="acircumflex" unicode="&#xe2;" 
d="M1995 0h-314l-223 375h-704l123 211h456l-332 557l-675 -1143h-297l856 1425q51 84 127 84q74 0 125 -84zM1292 1581h-143l-129 199h-16l-130 -199h-141l187 274h186z" />
    <glyph glyph-name="atilde" unicode="&#xe3;" 
d="M1995 0h-314l-223 375h-704l123 211h456l-332 557l-675 -1143h-297l856 1425q51 84 127 84q74 0 125 -84zM1274 1808v-122q-48 -60 -135 -60q-45 0 -127.5 40t-128.5 40q-38 0 -75.5 -21.5t-57.5 -50.5v121q49 62 133 62q47 0 129 -41t127 -41q40 0 77 21t58 52z" />
    <glyph glyph-name="adieresis" unicode="&#xe4;" 
d="M1995 0h-314l-223 375h-704l123 211h456l-332 557l-675 -1143h-297l856 1425q51 84 127 84q74 0 125 -84zM928 1737q0 -42 -29.5 -67t-73.5 -25q-47 0 -76.5 25t-29.5 67t29.5 67t76.5 25q44 0 73.5 -25t29.5 -67zM1307 1737q0 -42 -30 -67t-75 -25t-74.5 25t-29.5 67
t29.5 67t74.5 25t75 -25t30 -67z" />
    <glyph glyph-name="aring" unicode="&#xe5;" 
d="M1995 0h-314l-223 375h-704l123 211h456l-332 557l-675 -1143h-297l856 1425q51 84 127 84q74 0 125 -84zM1063 1581h-105q-90 0 -149 60.5t-59 150.5q0 92 58.5 148.5t149.5 56.5h105q93 0 152 -56.5t59 -148.5q0 -90 -59.5 -150.5t-151.5 -60.5zM958 1657h105
q58 0 95.5 38t37.5 95t-37 93t-96 36h-105q-57 0 -94 -36t-37 -93q0 -58 36.5 -95.5t94.5 -37.5z" />
    <glyph glyph-name="ae" unicode="&#xe6;" horiz-adv-x="2754" 
d="M2660 0h-1247v362h-676l127 216h549v651h-391l-700 -1229h-293l815 1401q53 88 129 88h1683v-260h-985v-969h989v-260zM2601 647h-739v219h739v-219z" />
    <glyph glyph-name="ccedilla" unicode="&#xe7;" horiz-adv-x="1697" 
d="M1616 0h-807q-205 0 -370.5 99.5t-259 273.5t-93.5 387q0 215 94 382t258 257t371 90h807v-260h-807q-201 0 -332 -135t-131 -346t131 -349.5t332 -138.5h807v-260zM889 -412l-135 316h272z" />
    <glyph glyph-name="egrave" unicode="&#xe8;" horiz-adv-x="1554" 
d="M1460 0h-1331v1489h1329v-260h-1071v-969h1073v-260zM1403 647h-825v219h825v-219zM977 1581l-524 113v161l524 -157v-117z" />
    <glyph glyph-name="eacute" unicode="&#xe9;" horiz-adv-x="1554" 
d="M1460 0h-1331v1489h1329v-260h-1071v-969h1073v-260zM1403 647h-825v219h825v-219zM1100 1694l-525 -113v117l525 157v-161z" />
    <glyph glyph-name="ecircumflex" unicode="&#xea;" horiz-adv-x="1554" 
d="M1460 0h-1331v1489h1329v-260h-1071v-969h1073v-260zM1403 647h-825v219h825v-219zM1057 1581h-144l-129 199h-16l-129 -199h-141l186 274h186z" />
    <glyph glyph-name="edieresis" unicode="&#xeb;" horiz-adv-x="1554" 
d="M1460 0h-1331v1489h1329v-260h-1071v-969h1073v-260zM1403 647h-825v219h825v-219zM692 1737q0 -42 -29 -67t-73 -25q-47 0 -77 25t-30 67t30 67t77 25q44 0 73 -25t29 -67zM1071 1737q0 -42 -29.5 -67t-74.5 -25t-75 25t-30 67t30 67t75 25t74.5 -25t29.5 -67z" />
    <glyph glyph-name="igrave" unicode="&#xec;" horiz-adv-x="546" 
d="M403 0h-260v1489h260v-1489zM475 1581l-524 113v161l524 -157v-117z" />
    <glyph glyph-name="iacute" unicode="&#xed;" horiz-adv-x="546" 
d="M403 0h-260v1489h260v-1489zM598 1694l-524 -113v117l524 157v-161z" />
    <glyph glyph-name="icircumflex" unicode="&#xee;" horiz-adv-x="546" 
d="M403 0h-260v1489h260v-1489zM553 1581h-143l-129 199h-17l-129 -199h-141l186 274h187z" />
    <glyph glyph-name="idieresis" unicode="&#xef;" horiz-adv-x="546" 
d="M403 0h-260v1489h260v-1489zM188 1737q0 -42 -29 -67t-73 -25q-47 0 -76.5 25t-29.5 67t29.5 67t76.5 25q44 0 73 -25t29 -67zM567 1737q0 -42 -29.5 -67t-74.5 -25t-75 25t-30 67t30 67t75 25t74.5 -25t29.5 -67z" />
    <glyph glyph-name="eth" unicode="&#xf0;" horiz-adv-x="1796" 
d="M987 0h-862v647h-105v219h105v623h862q209 0 374.5 -91.5t259 -258t93.5 -379.5q0 -214 -93 -387.5t-259.5 -273t-374.5 -99.5zM969 647h-586v-387h604q201 0 333 138.5t132 349.5q0 210 -131.5 345.5t-333.5 135.5h-604v-363h586v-219z" />
    <glyph glyph-name="ntilde" unicode="&#xf1;" horiz-adv-x="1787" 
d="M1417 37l-1046 1053v-1090h-248v1352q0 72 35.5 113.5t97.5 41.5q58 0 111 -53l1050 -1042v1089h248v-1364q0 -72 -35.5 -113.5t-93.5 -41.5q-64 0 -119 55zM1155 1808v-122q-48 -60 -135 -60q-45 0 -127.5 40t-128.5 40q-38 0 -75.5 -21.5t-57.5 -50.5v121q49 62 133 62
q48 0 130 -41t126 -41q40 0 77 21t58 52z" />
    <glyph glyph-name="ograve" unicode="&#xf2;" horiz-adv-x="1982" 
d="M1171 0h-362q-205 0 -370.5 99.5t-259 273.5t-93.5 387q0 215 94 382t258 257t371 90h362q213 0 379 -91.5t258.5 -258t92.5 -379.5q0 -214 -93.5 -387.5t-260.5 -273t-376 -99.5zM809 260h362q205 0 337 138.5t132 349.5t-132 346t-337 135h-362q-201 0 -332 -135
t-131 -346t131 -349.5t332 -138.5zM1192 1581l-524 113v161l524 -157v-117z" />
    <glyph glyph-name="oacute" unicode="&#xf3;" horiz-adv-x="1982" 
d="M1171 0h-362q-205 0 -370.5 99.5t-259 273.5t-93.5 387q0 215 94 382t258 257t371 90h362q213 0 379 -91.5t258.5 -258t92.5 -379.5q0 -214 -93.5 -387.5t-260.5 -273t-376 -99.5zM809 260h362q205 0 337 138.5t132 349.5t-132 346t-337 135h-362q-201 0 -332 -135
t-131 -346t131 -349.5t332 -138.5zM1315 1694l-524 -113v117l524 157v-161z" />
    <glyph glyph-name="ocircumflex" unicode="&#xf4;" horiz-adv-x="1982" 
d="M1171 0h-362q-205 0 -370.5 99.5t-259 273.5t-93.5 387q0 215 94 382t258 257t371 90h362q213 0 379 -91.5t258.5 -258t92.5 -379.5q0 -214 -93.5 -387.5t-260.5 -273t-376 -99.5zM809 260h362q205 0 337 138.5t132 349.5t-132 346t-337 135h-362q-201 0 -332 -135
t-131 -346t131 -349.5t332 -138.5zM1270 1581h-144l-129 199h-16l-129 -199h-141l186 274h186z" />
    <glyph glyph-name="otilde" unicode="&#xf5;" horiz-adv-x="1982" 
d="M1171 0h-362q-205 0 -370.5 99.5t-259 273.5t-93.5 387q0 215 94 382t258 257t371 90h362q213 0 379 -91.5t258.5 -258t92.5 -379.5q0 -214 -93.5 -387.5t-260.5 -273t-376 -99.5zM809 260h362q205 0 337 138.5t132 349.5t-132 346t-337 135h-362q-201 0 -332 -135
t-131 -346t131 -349.5t332 -138.5zM1253 1808v-122q-48 -60 -135 -60q-45 0 -127.5 40t-128.5 40q-38 0 -75.5 -21.5t-57.5 -50.5v121q49 62 133 62q48 0 130 -41t126 -41q40 0 77 21t58 52z" />
    <glyph glyph-name="odieresis" unicode="&#xf6;" horiz-adv-x="1982" 
d="M1171 0h-362q-205 0 -370.5 99.5t-259 273.5t-93.5 387q0 215 94 382t258 257t371 90h362q213 0 379 -91.5t258.5 -258t92.5 -379.5q0 -214 -93.5 -387.5t-260.5 -273t-376 -99.5zM809 260h362q205 0 337 138.5t132 349.5t-132 346t-337 135h-362q-201 0 -332 -135
t-131 -346t131 -349.5t332 -138.5zM905 1737q0 -42 -29 -67t-73 -25q-47 0 -77 25t-30 67t30 67t77 25q44 0 73 -25t29 -67zM1284 1737q0 -42 -29.5 -67t-74.5 -25t-75 25t-30 67t30 67t75 25t74.5 -25t29.5 -67z" />
    <glyph glyph-name="divide" unicode="&#xf7;" horiz-adv-x="1413" 
d="M1284 672h-1155v172h1155v-172zM846 1290q0 -59 -40.5 -99t-100.5 -40q-58 0 -98 40t-40 99t40 99.5t98 40.5q60 0 100.5 -40.5t40.5 -99.5zM846 205q0 -59 -40.5 -99t-100.5 -40q-58 0 -98 40t-40 99t40 99t98 40q60 0 100.5 -40t40.5 -99z" />
    <glyph glyph-name="oslash" unicode="&#xf8;" horiz-adv-x="1982" 
d="M1171 0h-362q-164 0 -309 68l-144 -170l-77 67l129 154q-150 101 -236 269t-86 372q0 215 94 382t258 257t371 90h362q181 0 338 -72l146 172l78 -67l-134 -156q143 -97 222.5 -253.5t79.5 -352.5q0 -214 -93.5 -387.5t-260.5 -273t-376 -99.5zM578 319l751 885
q-87 25 -158 25h-362q-201 0 -332 -135t-131 -346q0 -143 62 -255.5t170 -173.5zM809 260h362q205 0 337 138.5t132 349.5q0 135 -57 242t-158 169l-747 -883q66 -16 131 -16z" />
    <glyph glyph-name="ugrave" unicode="&#xf9;" horiz-adv-x="1820" 
d="M1460 657v832h254v-832q0 -351 -188.5 -514t-616.5 -163q-425 0 -614 163.5t-189 513.5v832h269v-832q0 -153 50.5 -243t169 -134t323.5 -44t323.5 44t168.5 134t50 243zM1110 1581l-524 113v161l524 -157v-117z" />
    <glyph glyph-name="uacute" unicode="&#xfa;" horiz-adv-x="1820" 
d="M1460 657v832h254v-832q0 -351 -188.5 -514t-616.5 -163q-425 0 -614 163.5t-189 513.5v832h269v-832q0 -153 50.5 -243t169 -134t323.5 -44t323.5 44t168.5 134t50 243zM1233 1694l-524 -113v117l524 157v-161z" />
    <glyph glyph-name="ucircumflex" unicode="&#xfb;" horiz-adv-x="1820" 
d="M1460 657v832h254v-832q0 -351 -188.5 -514t-616.5 -163q-425 0 -614 163.5t-189 513.5v832h269v-832q0 -153 50.5 -243t169 -134t323.5 -44t323.5 44t168.5 134t50 243zM1190 1581h-143l-129 199h-17l-129 -199h-141l186 274h187z" />
    <glyph glyph-name="udieresis" unicode="&#xfc;" horiz-adv-x="1820" 
d="M1460 657v832h254v-832q0 -351 -188.5 -514t-616.5 -163q-425 0 -614 163.5t-189 513.5v832h269v-832q0 -153 50.5 -243t169 -134t323.5 -44t323.5 44t168.5 134t50 243zM825 1737q0 -42 -29 -67t-73 -25q-47 0 -77 25t-30 67t30 67t77 25q44 0 73 -25t29 -67zM1204 1737
q0 -42 -29.5 -67t-74.5 -25t-75 25t-30 67t30 67t75 25t74.5 -25t29.5 -67z" />
    <glyph glyph-name="yacute" unicode="&#xfd;" horiz-adv-x="1896" 
d="M1077 0h-260v565l-790 924h350l579 -686l582 686h332l-793 -924v-565zM1280 1694l-524 -113v117l524 157v-161z" />
    <glyph glyph-name="thorn" unicode="&#xfe;" horiz-adv-x="1726" 
d="M1114 186h-536v250h536q138 0 217.5 81t79.5 216q0 134 -79 211.5t-218 77.5h-727v-1022h-258v1489h258v-207h727q258 0 405.5 -146t147.5 -395q0 -252 -148 -403.5t-405 -151.5z" />
    <glyph glyph-name="ydieresis" unicode="&#xff;" horiz-adv-x="1896" 
d="M1077 0h-260v565l-790 924h350l579 -686l582 686h332l-793 -924v-565zM870 1737q0 -42 -29 -67t-73 -25q-47 0 -76.5 25t-29.5 67t29.5 67t76.5 25q44 0 73 -25t29 -67zM1249 1737q0 -42 -29.5 -67t-74.5 -25t-75 25t-30 67t30 67t75 25t74.5 -25t29.5 -67z" />
    <glyph glyph-name="Amacron" unicode="&#x100;" 
d="M1995 0h-314l-223 375h-704l123 211h456l-332 557l-675 -1143h-297l856 1425q51 84 127 84q74 0 125 -84zM1274 1663h-524v119h524v-119z" />
    <glyph glyph-name="amacron" unicode="&#x101;" 
d="M1995 0h-314l-223 375h-704l123 211h456l-332 557l-675 -1143h-297l856 1425q51 84 127 84q74 0 125 -84zM1274 1663h-524v119h524v-119z" />
    <glyph glyph-name="Abreve" unicode="&#x102;" 
d="M1995 0h-314l-223 375h-704l123 211h456l-332 557l-675 -1143h-297l856 1425q51 84 127 84q74 0 125 -84zM1069 1581h-113q-59 0 -105.5 29t-71.5 73.5t-37.5 88.5t-12.5 83h139q2 -67 32.5 -126.5t90.5 -59.5h49q32 0 55 18.5t34.5 49t17 59.5t6.5 59h141
q0 -30 -7 -64.5t-24 -72.5t-42 -68t-64.5 -49.5t-87.5 -19.5z" />
    <glyph glyph-name="abreve" unicode="&#x103;" 
d="M1995 0h-314l-223 375h-704l123 211h456l-332 557l-675 -1143h-297l856 1425q51 84 127 84q74 0 125 -84zM1069 1581h-113q-59 0 -105.5 29t-71.5 73.5t-37.5 88.5t-12.5 83h139q2 -67 32.5 -126.5t90.5 -59.5h49q32 0 55 18.5t34.5 49t17 59.5t6.5 59h141
q0 -30 -7 -64.5t-24 -72.5t-42 -68t-64.5 -49.5t-87.5 -19.5z" />
    <glyph glyph-name="Aogonek" unicode="&#x104;" 
d="M1995 -412h-174q-104 0 -158.5 40.5t-54.5 111.5q0 85 82 139l184 121h-193l-223 375h-704l123 211h456l-332 557l-675 -1143h-297l856 1425q51 84 127 84q74 0 125 -84l858 -1425l-187 -125q-47 -32 -47 -65q0 -23 18 -37.5t48 -14.5h168v-170z" />
    <glyph glyph-name="aogonek" unicode="&#x105;" 
d="M1995 -412h-174q-104 0 -158.5 40.5t-54.5 111.5q0 85 82 139l184 121h-193l-223 375h-704l123 211h456l-332 557l-675 -1143h-297l856 1425q51 84 127 84q74 0 125 -84l858 -1425l-187 -125q-47 -32 -47 -65q0 -23 18 -37.5t48 -14.5h168v-170z" />
    <glyph glyph-name="Cacute" unicode="&#x106;" horiz-adv-x="1697" 
d="M1616 0h-807q-205 0 -370.5 99.5t-259 273.5t-93.5 387q0 215 94 382t258 257t371 90h807v-260h-807q-201 0 -332 -135t-131 -346t131 -349.5t332 -138.5h807v-260zM1274 1694l-524 -113v117l524 157v-161z" />
    <glyph glyph-name="cacute" unicode="&#x107;" horiz-adv-x="1697" 
d="M1616 0h-807q-205 0 -370.5 99.5t-259 273.5t-93.5 387q0 215 94 382t258 257t371 90h807v-260h-807q-201 0 -332 -135t-131 -346t131 -349.5t332 -138.5h807v-260zM1274 1694l-524 -113v117l524 157v-161z" />
    <glyph glyph-name="Cdotaccent" unicode="&#x10a;" horiz-adv-x="1697" 
d="M1616 0h-807q-205 0 -370.5 99.5t-259 273.5t-93.5 387q0 215 94 382t258 257t371 90h807v-260h-807q-201 0 -332 -135t-131 -346t131 -349.5t332 -138.5h807v-260zM1075 1737q0 -42 -29.5 -67t-74.5 -25t-75 25t-30 67t30 67t75 25t74.5 -25t29.5 -67z" />
    <glyph glyph-name="cdotaccent" unicode="&#x10b;" horiz-adv-x="1697" 
d="M1616 0h-807q-205 0 -370.5 99.5t-259 273.5t-93.5 387q0 215 94 382t258 257t371 90h807v-260h-807q-201 0 -332 -135t-131 -346t131 -349.5t332 -138.5h807v-260zM1075 1737q0 -42 -29.5 -67t-74.5 -25t-75 25t-30 67t30 67t75 25t74.5 -25t29.5 -67z" />
    <glyph glyph-name="Ccaron" unicode="&#x10c;" horiz-adv-x="1697" 
d="M1616 0h-807q-205 0 -370.5 99.5t-259 273.5t-93.5 387q0 215 94 382t258 257t371 90h807v-260h-807q-201 0 -332 -135t-131 -346t131 -349.5t332 -138.5h807v-260zM1042 1581h-186l-184 274h141l129 -202h16l129 202h144z" />
    <glyph glyph-name="ccaron" unicode="&#x10d;" horiz-adv-x="1697" 
d="M1616 0h-807q-205 0 -370.5 99.5t-259 273.5t-93.5 387q0 215 94 382t258 257t371 90h807v-260h-807q-201 0 -332 -135t-131 -346t131 -349.5t332 -138.5h807v-260zM1042 1581h-186l-184 274h141l129 -202h16l129 202h144z" />
    <glyph glyph-name="Dcaron" unicode="&#x10e;" horiz-adv-x="1800" 
d="M991 0h-862v1489h862q208 0 373 -91.5t258.5 -258t93.5 -379.5q0 -214 -93 -387.5t-259 -273t-373 -99.5zM387 260h604q201 0 333 138.5t132 349.5q0 210 -131.5 345.5t-333.5 135.5h-604v-969zM909 1581h-186l-184 274h141l129 -202h16l129 202h144z" />
    <glyph glyph-name="dcaron" unicode="&#x10f;" horiz-adv-x="1800" 
d="M991 0h-862v1489h862q208 0 373 -91.5t258.5 -258t93.5 -379.5q0 -214 -93 -387.5t-259 -273t-373 -99.5zM387 260h604q201 0 333 138.5t132 349.5q0 210 -131.5 345.5t-333.5 135.5h-604v-969zM909 1581h-186l-184 274h141l129 -202h16l129 202h144z" />
    <glyph glyph-name="Dcroat" unicode="&#x110;" horiz-adv-x="1796" 
d="M987 0h-862v647h-105v219h105v623h862q209 0 374.5 -91.5t259 -258t93.5 -379.5q0 -214 -93 -387.5t-259.5 -273t-374.5 -99.5zM969 647h-586v-387h604q201 0 333 138.5t132 349.5q0 210 -131.5 345.5t-333.5 135.5h-604v-363h586v-219z" />
    <glyph glyph-name="dcroat" unicode="&#x111;" horiz-adv-x="1796" 
d="M987 0h-862v647h-105v219h105v623h862q209 0 374.5 -91.5t259 -258t93.5 -379.5q0 -214 -93 -387.5t-259.5 -273t-374.5 -99.5zM969 647h-586v-387h604q201 0 333 138.5t132 349.5q0 210 -131.5 345.5t-333.5 135.5h-604v-363h586v-219z" />
    <glyph glyph-name="Emacron" unicode="&#x112;" horiz-adv-x="1554" 
d="M1460 0h-1331v1489h1329v-260h-1071v-969h1073v-260zM1403 647h-825v219h825v-219zM1038 1663h-524v119h524v-119z" />
    <glyph glyph-name="emacron" unicode="&#x113;" horiz-adv-x="1554" 
d="M1460 0h-1331v1489h1329v-260h-1071v-969h1073v-260zM1403 647h-825v219h825v-219zM1038 1663h-524v119h524v-119z" />
    <glyph glyph-name="Edotaccent" unicode="&#x116;" horiz-adv-x="1554" 
d="M1460 0h-1331v1489h1329v-260h-1071v-969h1073v-260zM1403 647h-825v219h825v-219zM881 1737q0 -42 -30 -67t-75 -25t-74.5 25t-29.5 67t29.5 67t74.5 25t75 -25t30 -67z" />
    <glyph glyph-name="edotaccent" unicode="&#x117;" horiz-adv-x="1554" 
d="M1460 0h-1331v1489h1329v-260h-1071v-969h1073v-260zM1403 647h-825v219h825v-219zM881 1737q0 -42 -30 -67t-75 -25t-74.5 25t-29.5 67t29.5 67t74.5 25t75 -25t30 -67z" />
    <glyph glyph-name="Eogonek" unicode="&#x118;" horiz-adv-x="1554" 
d="M1460 -412h-174q-104 0 -158.5 40.5t-54.5 111.5q0 85 82 139l184 121h-1210v1489h1329v-260h-1071v-969h1073v-260l-186 -125q-47 -32 -47 -65q0 -24 17.5 -38t47.5 -14h168v-170zM1403 647h-825v219h825v-219z" />
    <glyph glyph-name="eogonek" unicode="&#x119;" horiz-adv-x="1554" 
d="M1460 -412h-174q-104 0 -158.5 40.5t-54.5 111.5q0 85 82 139l184 121h-1210v1489h1329v-260h-1071v-969h1073v-260l-186 -125q-47 -32 -47 -65q0 -24 17.5 -38t47.5 -14h168v-170zM1403 647h-825v219h825v-219z" />
    <glyph glyph-name="Ecaron" unicode="&#x11a;" horiz-adv-x="1554" 
d="M1460 0h-1331v1489h1329v-260h-1071v-969h1073v-260zM1403 647h-825v219h825v-219zM868 1581h-186l-184 274h141l129 -202h16l129 202h144z" />
    <glyph glyph-name="ecaron" unicode="&#x11b;" horiz-adv-x="1554" 
d="M1460 0h-1331v1489h1329v-260h-1071v-969h1073v-260zM1403 647h-825v219h825v-219zM868 1581h-186l-184 274h141l129 -202h16l129 202h144z" />
    <glyph glyph-name="Gbreve" unicode="&#x11e;" horiz-adv-x="1818" 
d="M1708 0h-899q-205 0 -370.5 99.5t-259 273.5t-93.5 387q0 215 94 382t258 257t371 90h807v-260h-807q-201 0 -332 -135t-131 -346t131 -349.5t332 -138.5h637v387h-672v219h934v-866zM1028 1581h-113q-59 0 -105.5 29t-71.5 73.5t-37.5 88.5t-12.5 83h139
q2 -67 32.5 -126.5t90.5 -59.5h49q32 0 55 18.5t34.5 49t17 59.5t6.5 59h141q0 -30 -7 -64.5t-24 -72.5t-42 -68t-64.5 -49.5t-87.5 -19.5z" />
    <glyph glyph-name="gbreve" unicode="&#x11f;" horiz-adv-x="1818" 
d="M1708 0h-899q-205 0 -370.5 99.5t-259 273.5t-93.5 387q0 215 94 382t258 257t371 90h807v-260h-807q-201 0 -332 -135t-131 -346t131 -349.5t332 -138.5h637v387h-672v219h934v-866zM1028 1581h-113q-59 0 -105.5 29t-71.5 73.5t-37.5 88.5t-12.5 83h139
q2 -67 32.5 -126.5t90.5 -59.5h49q32 0 55 18.5t34.5 49t17 59.5t6.5 59h141q0 -30 -7 -64.5t-24 -72.5t-42 -68t-64.5 -49.5t-87.5 -19.5z" />
    <glyph glyph-name="Gdotaccent" unicode="&#x120;" horiz-adv-x="1818" 
d="M1708 0h-899q-205 0 -370.5 99.5t-259 273.5t-93.5 387q0 215 94 382t258 257t371 90h807v-260h-807q-201 0 -332 -135t-131 -346t131 -349.5t332 -138.5h637v387h-672v219h934v-866zM1096 1737q0 -42 -30 -67t-75 -25t-74.5 25t-29.5 67t29.5 67t74.5 25t75 -25t30 -67z
" />
    <glyph glyph-name="gdotaccent" unicode="&#x121;" horiz-adv-x="1818" 
d="M1708 0h-899q-205 0 -370.5 99.5t-259 273.5t-93.5 387q0 215 94 382t258 257t371 90h807v-260h-807q-201 0 -332 -135t-131 -346t131 -349.5t332 -138.5h637v387h-672v219h934v-866zM1096 1737q0 -42 -30 -67t-75 -25t-74.5 25t-29.5 67t29.5 67t74.5 25t75 -25t30 -67z
" />
    <glyph glyph-name="Gcommaaccent" unicode="&#x122;" horiz-adv-x="1818" 
d="M1708 0h-899q-205 0 -370.5 99.5t-259 273.5t-93.5 387q0 215 94 382t258 257t371 90h807v-260h-807q-201 0 -332 -135t-131 -346t131 -349.5t332 -138.5h637v387h-672v219h934v-866zM928 -412l-135 316h272z" />
    <glyph glyph-name="gcommaaccent" unicode="&#x123;" horiz-adv-x="1818" 
d="M1708 0h-899q-205 0 -370.5 99.5t-259 273.5t-93.5 387q0 215 94 382t258 257t371 90h807v-260h-807q-201 0 -332 -135t-131 -346t131 -349.5t332 -138.5h637v387h-672v219h934v-866zM928 -412l-135 316h272z" />
    <glyph glyph-name="Hbar" unicode="&#x126;" horiz-adv-x="1716" 
d="M1587 -6h-260v647h-749v231h749v258h-749v119h749v240h260v-1495zM389 -6h-260v1495h260v-1495z" />
    <glyph glyph-name="hbar" unicode="&#x127;" horiz-adv-x="1716" 
d="M1587 -6h-260v647h-749v231h749v258h-749v119h749v240h260v-1495zM389 -6h-260v1495h260v-1495z" />
    <glyph glyph-name="uni012A" unicode="&#x12a;" horiz-adv-x="546" 
d="M403 0h-260v1489h260v-1489zM537 1663h-525v119h525v-119z" />
    <glyph glyph-name="imacron" unicode="&#x12b;" horiz-adv-x="546" 
d="M403 0h-260v1489h260v-1489zM537 1663h-525v119h525v-119z" />
    <glyph glyph-name="Ibreve" unicode="&#x12c;" horiz-adv-x="546" 
d="M403 0h-260v1489h260v-1489zM332 1581h-113q-59 0 -105.5 29t-71.5 73.5t-37.5 88.5t-12.5 83h139q2 -67 32.5 -126.5t90.5 -59.5h49q32 0 55 18.5t34.5 49t17 59.5t6.5 59h141q0 -30 -7 -64.5t-24 -72.5t-42 -68t-64.5 -49.5t-87.5 -19.5z" />
    <glyph glyph-name="ibreve" unicode="&#x12d;" horiz-adv-x="546" 
d="M403 0h-260v1489h260v-1489zM332 1581h-113q-59 0 -105.5 29t-71.5 73.5t-37.5 88.5t-12.5 83h139q2 -67 32.5 -126.5t90.5 -59.5h49q32 0 55 18.5t34.5 49t17 59.5t6.5 59h141q0 -30 -7 -64.5t-24 -72.5t-42 -68t-64.5 -49.5t-87.5 -19.5z" />
    <glyph glyph-name="Iogonek" unicode="&#x12e;" horiz-adv-x="546" 
d="M403 -412h-174q-104 0 -158.5 40.5t-54.5 111.5q0 85 82 139l185 121h-140v1489h260v-1489l-186 -125q-47 -32 -47 -65q0 -23 18 -37.5t48 -14.5h167v-170z" />
    <glyph glyph-name="iogonek" unicode="&#x12f;" horiz-adv-x="546" 
d="M403 -412h-174q-104 0 -158.5 40.5t-54.5 111.5q0 85 82 139l185 121h-140v1489h260v-1489l-186 -125q-47 -32 -47 -65q0 -23 18 -37.5t48 -14.5h167v-170z" />
    <glyph glyph-name="Idotaccent" unicode="&#x130;" horiz-adv-x="546" 
d="M403 0h-260v1489h260v-1489zM377 1737q0 -42 -30 -67t-75 -25t-74.5 25t-29.5 67t29.5 67t74.5 25t75 -25t30 -67z" />
    <glyph glyph-name="dotlessi" unicode="&#x131;" horiz-adv-x="546" 
d="M403 0h-260v1489h260v-1489z" />
    <glyph glyph-name="IJ" unicode="&#x132;" horiz-adv-x="1996" 
d="M403 0h-260v1489h260v-1489zM1141 0h-545v260h545q259 0 374 100t115 318v811h260v-811q0 -347 -181 -512.5t-568 -165.5z" />
    <glyph glyph-name="ij" unicode="&#x133;" horiz-adv-x="1996" 
d="M403 0h-260v1489h260v-1489zM1141 0h-545v260h545q259 0 374 100t115 318v811h260v-811q0 -347 -181 -512.5t-568 -165.5z" />
    <glyph glyph-name="Kcommaaccent" unicode="&#x136;" horiz-adv-x="1792" 
d="M1753 0h-397l-834 655q-31 24 -42 49.5t-11 59.5q0 36 14 63t52 56l788 606h399l-974 -727zM389 0h-260v1489h260v-1489zM895 -412l-135 316h272z" />
    <glyph glyph-name="kcommaaccent" unicode="&#x137;" horiz-adv-x="1792" 
d="M1753 0h-397l-834 655q-31 24 -42 49.5t-11 59.5q0 36 14 63t52 56l788 606h399l-974 -727zM389 0h-260v1489h260v-1489zM895 -412l-135 316h272z" />
    <glyph glyph-name="Lacute" unicode="&#x139;" horiz-adv-x="1447" 
d="M1391 0h-1262v1489h260v-1229h1002v-260zM575 1694l-524 -113v117l524 157v-161z" />
    <glyph glyph-name="lacute" unicode="&#x13a;" horiz-adv-x="1447" 
d="M1391 0h-1262v1489h260v-1229h1002v-260zM575 1694l-524 -113v117l524 157v-161z" />
    <glyph glyph-name="Lcommaaccent" unicode="&#x13b;" horiz-adv-x="1447" 
d="M1391 0h-1262v1489h260v-1229h1002v-260zM760 -412l-135 316h272z" />
    <glyph glyph-name="lcommaaccent" unicode="&#x13c;" horiz-adv-x="1447" 
d="M1391 0h-1262v1489h260v-1229h1002v-260zM760 -412l-135 316h272z" />
    <glyph glyph-name="Lcaron" unicode="&#x13d;" horiz-adv-x="1447" 
d="M1391 0h-1262v1489h260v-1229h1002v-260zM799 956h-160v533h262z" />
    <glyph glyph-name="lcaron" unicode="&#x13e;" horiz-adv-x="1447" 
d="M1391 0h-1262v1489h260v-1229h1002v-260zM799 956h-160v533h262z" />
    <glyph glyph-name="Lslash" unicode="&#x141;" horiz-adv-x="1447" 
d="M1391 0h-1262v1489h260v-664l561 244v-225l-561 -246v-338h1002v-260z" />
    <glyph glyph-name="lslash" unicode="&#x142;" horiz-adv-x="1447" 
d="M1391 0h-1262v1489h260v-664l561 244v-225l-561 -246v-338h1002v-260z" />
    <glyph glyph-name="Nacute" unicode="&#x143;" horiz-adv-x="1787" 
d="M1417 37l-1046 1053v-1090h-248v1352q0 72 35.5 113.5t97.5 41.5q58 0 111 -53l1050 -1042v1089h248v-1364q0 -72 -35.5 -113.5t-93.5 -41.5q-64 0 -119 55zM1217 1694l-525 -113v117l525 157v-161z" />
    <glyph glyph-name="nacute" unicode="&#x144;" horiz-adv-x="1787" 
d="M1417 37l-1046 1053v-1090h-248v1352q0 72 35.5 113.5t97.5 41.5q58 0 111 -53l1050 -1042v1089h248v-1364q0 -72 -35.5 -113.5t-93.5 -41.5q-64 0 -119 55zM1217 1694l-525 -113v117l525 157v-161z" />
    <glyph glyph-name="Ncommaaccent" unicode="&#x145;" horiz-adv-x="1787" 
d="M1417 37l-1046 1053v-1090h-248v1352q0 72 35.5 113.5t97.5 41.5q58 0 111 -53l1050 -1042v1089h248v-1364q0 -72 -35.5 -113.5t-93.5 -41.5q-64 0 -119 55zM893 -412l-135 316h272z" />
    <glyph glyph-name="ncommaaccent" unicode="&#x146;" horiz-adv-x="1787" 
d="M1417 37l-1046 1053v-1090h-248v1352q0 72 35.5 113.5t97.5 41.5q58 0 111 -53l1050 -1042v1089h248v-1364q0 -72 -35.5 -113.5t-93.5 -41.5q-64 0 -119 55zM893 -412l-135 316h272z" />
    <glyph glyph-name="Ncaron" unicode="&#x147;" horiz-adv-x="1787" 
d="M1417 37l-1046 1053v-1090h-248v1352q0 72 35.5 113.5t97.5 41.5q58 0 111 -53l1050 -1042v1089h248v-1364q0 -72 -35.5 -113.5t-93.5 -41.5q-64 0 -119 55zM985 1581h-186l-185 274h142l129 -202h16l129 202h144z" />
    <glyph glyph-name="ncaron" unicode="&#x148;" horiz-adv-x="1787" 
d="M1417 37l-1046 1053v-1090h-248v1352q0 72 35.5 113.5t97.5 41.5q58 0 111 -53l1050 -1042v1089h248v-1364q0 -72 -35.5 -113.5t-93.5 -41.5q-64 0 -119 55zM985 1581h-186l-185 274h142l129 -202h16l129 202h144z" />
    <glyph glyph-name="Eng" unicode="&#x14a;" horiz-adv-x="1787" 
d="M915 -412h-196v260h196q193 0 308 54t161 168l-1013 1020v-1090h-248v1352q0 72 35.5 113.5t97.5 41.5q58 0 111 -53l1050 -1042v1089h248v-1364q0 -108 -36.5 -197.5t-103 -154.5t-160 -109.5t-207 -66t-243.5 -21.5z" />
    <glyph glyph-name="eng" unicode="&#x14b;" horiz-adv-x="1787" 
d="M915 -412h-196v260h196q193 0 308 54t161 168l-1013 1020v-1090h-248v1352q0 72 35.5 113.5t97.5 41.5q58 0 111 -53l1050 -1042v1089h248v-1364q0 -108 -36.5 -197.5t-103 -154.5t-160 -109.5t-207 -66t-243.5 -21.5z" />
    <glyph glyph-name="Omacron" unicode="&#x14c;" horiz-adv-x="1982" 
d="M1171 0h-362q-205 0 -370.5 99.5t-259 273.5t-93.5 387q0 215 94 382t258 257t371 90h362q213 0 379 -91.5t258.5 -258t92.5 -379.5q0 -214 -93.5 -387.5t-260.5 -273t-376 -99.5zM809 260h362q205 0 337 138.5t132 349.5t-132 346t-337 135h-362q-201 0 -332 -135
t-131 -346t131 -349.5t332 -138.5zM1253 1663h-524v119h524v-119z" />
    <glyph glyph-name="omacron" unicode="&#x14d;" horiz-adv-x="1982" 
d="M1171 0h-362q-205 0 -370.5 99.5t-259 273.5t-93.5 387q0 215 94 382t258 257t371 90h362q213 0 379 -91.5t258.5 -258t92.5 -379.5q0 -214 -93.5 -387.5t-260.5 -273t-376 -99.5zM809 260h362q205 0 337 138.5t132 349.5t-132 346t-337 135h-362q-201 0 -332 -135
t-131 -346t131 -349.5t332 -138.5zM1253 1663h-524v119h524v-119z" />
    <glyph glyph-name="Ohungarumlaut" unicode="&#x150;" horiz-adv-x="1982" 
d="M1171 0h-362q-205 0 -370.5 99.5t-259 273.5t-93.5 387q0 215 94 382t258 257t371 90h362q213 0 379 -91.5t258.5 -258t92.5 -379.5q0 -214 -93.5 -387.5t-260.5 -273t-376 -99.5zM809 260h362q205 0 337 138.5t132 349.5t-132 346t-337 135h-362q-201 0 -332 -135
t-131 -346t131 -349.5t332 -138.5zM1198 1599h-108l96 256h178zM870 1599h-106l96 256h178z" />
    <glyph glyph-name="ohungarumlaut" unicode="&#x151;" horiz-adv-x="1982" 
d="M1171 0h-362q-205 0 -370.5 99.5t-259 273.5t-93.5 387q0 215 94 382t258 257t371 90h362q213 0 379 -91.5t258.5 -258t92.5 -379.5q0 -214 -93.5 -387.5t-260.5 -273t-376 -99.5zM809 260h362q205 0 337 138.5t132 349.5t-132 346t-337 135h-362q-201 0 -332 -135
t-131 -346t131 -349.5t332 -138.5zM1198 1599h-108l96 256h178zM870 1599h-106l96 256h178z" />
    <glyph glyph-name="OE" unicode="&#x152;" horiz-adv-x="2670" 
d="M2576 0h-1767q-205 0 -370.5 99.5t-259 273.5t-93.5 387q0 215 94 382t258 257t371 90h1765v-260h-1011v-969h1013v-260zM1303 260v969h-494q-201 0 -332 -135t-131 -346t131 -349.5t332 -138.5h494zM2517 647h-766v219h766v-219z" />
    <glyph glyph-name="oe" unicode="&#x153;" horiz-adv-x="2670" 
d="M2576 0h-1767q-205 0 -370.5 99.5t-259 273.5t-93.5 387q0 215 94 382t258 257t371 90h1765v-260h-1011v-969h1013v-260zM1303 260v969h-494q-201 0 -332 -135t-131 -346t131 -349.5t332 -138.5h494zM2517 647h-766v219h766v-219z" />
    <glyph glyph-name="Racute" unicode="&#x154;" horiz-adv-x="1886" 
d="M1880 0h-369l-376 414h-557v229h620q139 0 212 77t73 222q0 142 -74.5 214.5t-210.5 72.5h-811v-1229h-258v1489h1069q253 0 397 -146t144 -397q0 -183 -80.5 -310t-226.5 -183zM1184 1694l-525 -113v117l525 157v-161z" />
    <glyph glyph-name="racute" unicode="&#x155;" horiz-adv-x="1886" 
d="M1880 0h-369l-376 414h-557v229h620q139 0 212 77t73 222q0 142 -74.5 214.5t-210.5 72.5h-811v-1229h-258v1489h1069q253 0 397 -146t144 -397q0 -183 -80.5 -310t-226.5 -183zM1184 1694l-525 -113v117l525 157v-161z" />
    <glyph glyph-name="Rcommaaccent" unicode="&#x156;" horiz-adv-x="1886" 
d="M1880 0h-369l-376 414h-557v229h620q139 0 212 77t73 222q0 142 -74.5 214.5t-210.5 72.5h-811v-1229h-258v1489h1069q253 0 397 -146t144 -397q0 -183 -80.5 -310t-226.5 -183zM942 -412l-135 316h272z" />
    <glyph glyph-name="rcommaaccent" unicode="&#x157;" horiz-adv-x="1886" 
d="M1880 0h-369l-376 414h-557v229h620q139 0 212 77t73 222q0 142 -74.5 214.5t-210.5 72.5h-811v-1229h-258v1489h1069q253 0 397 -146t144 -397q0 -183 -80.5 -310t-226.5 -183zM942 -412l-135 316h272z" />
    <glyph glyph-name="Rcaron" unicode="&#x158;" horiz-adv-x="1886" 
d="M1880 0h-369l-376 414h-557v229h620q139 0 212 77t73 222q0 142 -74.5 214.5t-210.5 72.5h-811v-1229h-258v1489h1069q253 0 397 -146t144 -397q0 -183 -80.5 -310t-226.5 -183zM952 1581h-186l-184 274h141l129 -202h16l129 202h144z" />
    <glyph glyph-name="rcaron" unicode="&#x159;" horiz-adv-x="1886" 
d="M1880 0h-369l-376 414h-557v229h620q139 0 212 77t73 222q0 142 -74.5 214.5t-210.5 72.5h-811v-1229h-258v1489h1069q253 0 397 -146t144 -397q0 -183 -80.5 -310t-226.5 -183zM952 1581h-186l-184 274h141l129 -202h16l129 202h144z" />
    <glyph glyph-name="Sacute" unicode="&#x15a;" horiz-adv-x="1802" 
d="M1245 0h-1116v260h1116q103 0 160 53t57 142q0 95 -56 143.5t-161 48.5h-684q-208 0 -331.5 118.5t-123.5 305.5q0 186 121 302t338 116h1069v-260h-1069q-89 0 -138.5 -48.5t-49.5 -133.5t50 -133t136 -48h682q228 0 345.5 -107.5t117.5 -322.5q0 -196 -119 -316
t-344 -120zM1225 1694l-525 -113v117l525 157v-161z" />
    <glyph glyph-name="sacute" unicode="&#x15b;" horiz-adv-x="1802" 
d="M1245 0h-1116v260h1116q103 0 160 53t57 142q0 95 -56 143.5t-161 48.5h-684q-208 0 -331.5 118.5t-123.5 305.5q0 186 121 302t338 116h1069v-260h-1069q-89 0 -138.5 -48.5t-49.5 -133.5t50 -133t136 -48h682q228 0 345.5 -107.5t117.5 -322.5q0 -196 -119 -316
t-344 -120zM1225 1694l-525 -113v117l525 157v-161z" />
    <glyph glyph-name="Scedilla" unicode="&#x15e;" horiz-adv-x="1802" 
d="M1245 0h-1116v260h1116q103 0 160 53t57 142q0 95 -56 143.5t-161 48.5h-684q-208 0 -331.5 118.5t-123.5 305.5q0 186 121 302t338 116h1069v-260h-1069q-89 0 -138.5 -48.5t-49.5 -133.5t50 -133t136 -48h682q228 0 345.5 -107.5t117.5 -322.5q0 -196 -119 -316
t-344 -120zM899 -412l-135 316h272z" />
    <glyph glyph-name="scedilla" unicode="&#x15f;" horiz-adv-x="1802" 
d="M1245 0h-1116v260h1116q103 0 160 53t57 142q0 95 -56 143.5t-161 48.5h-684q-208 0 -331.5 118.5t-123.5 305.5q0 186 121 302t338 116h1069v-260h-1069q-89 0 -138.5 -48.5t-49.5 -133.5t50 -133t136 -48h682q228 0 345.5 -107.5t117.5 -322.5q0 -196 -119 -316
t-344 -120zM899 -412l-135 316h272z" />
    <glyph glyph-name="Scaron" unicode="&#x160;" horiz-adv-x="1802" 
d="M1245 0h-1116v260h1116q103 0 160 53t57 142q0 95 -56 143.5t-161 48.5h-684q-208 0 -331.5 118.5t-123.5 305.5q0 186 121 302t338 116h1069v-260h-1069q-89 0 -138.5 -48.5t-49.5 -133.5t50 -133t136 -48h682q228 0 345.5 -107.5t117.5 -322.5q0 -196 -119 -316
t-344 -120zM1012 1581h-187l-184 274h141l129 -202h17l129 202h143z" />
    <glyph glyph-name="scaron" unicode="&#x161;" horiz-adv-x="1802" 
d="M1245 0h-1116v260h1116q103 0 160 53t57 142q0 95 -56 143.5t-161 48.5h-684q-208 0 -331.5 118.5t-123.5 305.5q0 186 121 302t338 116h1069v-260h-1069q-89 0 -138.5 -48.5t-49.5 -133.5t50 -133t136 -48h682q228 0 345.5 -107.5t117.5 -322.5q0 -196 -119 -316
t-344 -120zM1012 1581h-187l-184 274h141l129 -202h17l129 202h143z" />
    <glyph glyph-name="Tcaron" unicode="&#x164;" horiz-adv-x="1474" 
d="M866 0h-260v1229h-565v260h1391v-260h-566v-1229zM827 1581h-186l-184 274h141l129 -202h16l129 202h144z" />
    <glyph glyph-name="tcaron" unicode="&#x165;" horiz-adv-x="1474" 
d="M866 0h-260v1229h-565v260h1391v-260h-566v-1229zM827 1581h-186l-184 274h141l129 -202h16l129 202h144z" />
    <glyph glyph-name="Tbar" unicode="&#x166;" horiz-adv-x="1474" 
d="M866 0h-260v524h-237v174h237v531h-565v260h1391v-260h-566v-531h240v-174h-240v-524z" />
    <glyph glyph-name="tbar" unicode="&#x167;" horiz-adv-x="1474" 
d="M866 0h-260v524h-237v174h237v531h-565v260h1391v-260h-566v-531h240v-174h-240v-524z" />
    <glyph glyph-name="Utilde" unicode="&#x168;" horiz-adv-x="1820" 
d="M1460 657v832h254v-832q0 -351 -188.5 -514t-616.5 -163q-425 0 -614 163.5t-189 513.5v832h269v-832q0 -153 50.5 -243t169 -134t323.5 -44t323.5 44t168.5 134t50 243zM1171 1808v-122q-48 -60 -135 -60q-45 0 -127.5 40t-128.5 40q-38 0 -75.5 -21.5t-57.5 -50.5v121
q49 62 133 62q48 0 130 -41t126 -41q40 0 77 21t58 52z" />
    <glyph glyph-name="utilde" unicode="&#x169;" horiz-adv-x="1820" 
d="M1460 657v832h254v-832q0 -351 -188.5 -514t-616.5 -163q-425 0 -614 163.5t-189 513.5v832h269v-832q0 -153 50.5 -243t169 -134t323.5 -44t323.5 44t168.5 134t50 243zM1171 1808v-122q-48 -60 -135 -60q-45 0 -127.5 40t-128.5 40q-38 0 -75.5 -21.5t-57.5 -50.5v121
q49 62 133 62q48 0 130 -41t126 -41q40 0 77 21t58 52z" />
    <glyph glyph-name="Umacron" unicode="&#x16a;" horiz-adv-x="1820" 
d="M1460 657v832h254v-832q0 -351 -188.5 -514t-616.5 -163q-425 0 -614 163.5t-189 513.5v832h269v-832q0 -153 50.5 -243t169 -134t323.5 -44t323.5 44t168.5 134t50 243zM1171 1663h-524v119h524v-119z" />
    <glyph glyph-name="umacron" unicode="&#x16b;" horiz-adv-x="1820" 
d="M1460 657v832h254v-832q0 -351 -188.5 -514t-616.5 -163q-425 0 -614 163.5t-189 513.5v832h269v-832q0 -153 50.5 -243t169 -134t323.5 -44t323.5 44t168.5 134t50 243zM1171 1663h-524v119h524v-119z" />
    <glyph glyph-name="Ubreve" unicode="&#x16c;" horiz-adv-x="1820" 
d="M1460 657v832h254v-832q0 -351 -188.5 -514t-616.5 -163q-425 0 -614 163.5t-189 513.5v832h269v-832q0 -153 50.5 -243t169 -134t323.5 -44t323.5 44t168.5 134t50 243zM967 1581h-113q-59 0 -105.5 29t-71.5 73.5t-37.5 88.5t-12.5 83h139q2 -67 32.5 -126.5
t90.5 -59.5h49q32 0 55 18.5t34.5 49t17 59.5t6.5 59h141q0 -30 -7 -64.5t-24 -72.5t-42 -68t-64.5 -49.5t-87.5 -19.5z" />
    <glyph glyph-name="ubreve" unicode="&#x16d;" horiz-adv-x="1820" 
d="M1460 657v832h254v-832q0 -351 -188.5 -514t-616.5 -163q-425 0 -614 163.5t-189 513.5v832h269v-832q0 -153 50.5 -243t169 -134t323.5 -44t323.5 44t168.5 134t50 243zM967 1581h-113q-59 0 -105.5 29t-71.5 73.5t-37.5 88.5t-12.5 83h139q2 -67 32.5 -126.5
t90.5 -59.5h49q32 0 55 18.5t34.5 49t17 59.5t6.5 59h141q0 -30 -7 -64.5t-24 -72.5t-42 -68t-64.5 -49.5t-87.5 -19.5z" />
    <glyph glyph-name="Uring" unicode="&#x16e;" horiz-adv-x="1820" 
d="M1460 657v832h254v-832q0 -351 -188.5 -514t-616.5 -163q-425 0 -614 163.5t-189 513.5v832h269v-832q0 -153 50.5 -243t169 -134t323.5 -44t323.5 44t168.5 134t50 243zM961 1581h-105q-90 0 -149.5 60.5t-59.5 150.5q0 91 58.5 148t150.5 57h105q93 0 151.5 -56.5
t58.5 -148.5q0 -90 -59.5 -150.5t-150.5 -60.5zM856 1657h105q58 0 95.5 38t37.5 95t-37 93t-96 36h-105q-57 0 -94 -36t-37 -93q0 -58 36.5 -95.5t94.5 -37.5z" />
    <glyph glyph-name="uring" unicode="&#x16f;" horiz-adv-x="1820" 
d="M1460 657v832h254v-832q0 -351 -188.5 -514t-616.5 -163q-425 0 -614 163.5t-189 513.5v832h269v-832q0 -153 50.5 -243t169 -134t323.5 -44t323.5 44t168.5 134t50 243zM961 1581h-105q-90 0 -149.5 60.5t-59.5 150.5q0 91 58.5 148t150.5 57h105q93 0 151.5 -56.5
t58.5 -148.5q0 -90 -59.5 -150.5t-150.5 -60.5zM856 1657h105q58 0 95.5 38t37.5 95t-37 93t-96 36h-105q-57 0 -94 -36t-37 -93q0 -58 36.5 -95.5t94.5 -37.5z" />
    <glyph glyph-name="Uhungarumlaut" unicode="&#x170;" horiz-adv-x="1820" 
d="M1460 657v832h254v-832q0 -351 -188.5 -514t-616.5 -163q-425 0 -614 163.5t-189 513.5v832h269v-832q0 -153 50.5 -243t169 -134t323.5 -44t323.5 44t168.5 134t50 243zM1116 1599h-108l96 256h178zM788 1599h-106l96 256h178z" />
    <glyph glyph-name="uhungarumlaut" unicode="&#x171;" horiz-adv-x="1820" 
d="M1460 657v832h254v-832q0 -351 -188.5 -514t-616.5 -163q-425 0 -614 163.5t-189 513.5v832h269v-832q0 -153 50.5 -243t169 -134t323.5 -44t323.5 44t168.5 134t50 243zM1116 1599h-108l96 256h178zM788 1599h-106l96 256h178z" />
    <glyph glyph-name="Uogonek" unicode="&#x172;" horiz-adv-x="1820" 
d="M1104 -412h-174q-104 0 -158.5 40.5t-54.5 111.5q0 85 82 139l151 101h-41q-425 0 -614 163.5t-189 513.5v832h269v-832q0 -153 50.5 -243t169 -134t323.5 -44t323.5 44t168.5 134t50 243v832h254v-832q0 -313 -149.5 -476t-481.5 -193l-165 -113q-48 -33 -48 -65
q0 -23 18 -37.5t48 -14.5h168v-170z" />
    <glyph glyph-name="uogonek" unicode="&#x173;" horiz-adv-x="1820" 
d="M1104 -412h-174q-104 0 -158.5 40.5t-54.5 111.5q0 85 82 139l151 101h-41q-425 0 -614 163.5t-189 513.5v832h269v-832q0 -153 50.5 -243t169 -134t323.5 -44t323.5 44t168.5 134t50 243v832h254v-832q0 -313 -149.5 -476t-481.5 -193l-165 -113q-48 -33 -48 -65
q0 -23 18 -37.5t48 -14.5h168v-170z" />
    <glyph glyph-name="Wcircumflex" unicode="&#x174;" horiz-adv-x="2596" 
d="M1528 61l-230 437l-231 -437q-43 -81 -133 -81q-89 0 -135 81l-770 1428h311l602 -1145l225 406l-387 739h314l575 -1145l606 1145h291l-770 -1428q-46 -81 -135 -81q-90 0 -133 81zM1577 1581h-143l-129 199h-17l-129 -199h-141l186 274h187z" />
    <glyph glyph-name="wcircumflex" unicode="&#x175;" horiz-adv-x="2596" 
d="M1528 61l-230 437l-231 -437q-43 -81 -133 -81q-89 0 -135 81l-770 1428h311l602 -1145l225 406l-387 739h314l575 -1145l606 1145h291l-770 -1428q-46 -81 -135 -81q-90 0 -133 81zM1577 1581h-143l-129 199h-17l-129 -199h-141l186 274h187z" />
    <glyph glyph-name="Ycircumflex" unicode="&#x176;" horiz-adv-x="1896" 
d="M1077 0h-260v565l-790 924h350l579 -686l582 686h332l-793 -924v-565zM1235 1581h-143l-129 199h-17l-129 -199h-141l186 274h187z" />
    <glyph glyph-name="ycircumflex" unicode="&#x177;" horiz-adv-x="1896" 
d="M1077 0h-260v565l-790 924h350l579 -686l582 686h332l-793 -924v-565zM1235 1581h-143l-129 199h-17l-129 -199h-141l186 274h187z" />
    <glyph glyph-name="Ydieresis" unicode="&#x178;" horiz-adv-x="1896" 
d="M1077 0h-260v565l-790 924h350l579 -686l582 686h332l-793 -924v-565zM870 1737q0 -42 -29 -67t-73 -25q-47 0 -76.5 25t-29.5 67t29.5 67t76.5 25q44 0 73 -25t29 -67zM1249 1737q0 -42 -29.5 -67t-74.5 -25t-75 25t-30 67t30 67t75 25t74.5 -25t29.5 -67z" />
    <glyph glyph-name="Zacute" unicode="&#x179;" horiz-adv-x="1642" 
d="M1544 0h-1315q-62 0 -104.5 35t-42.5 98q0 58 53 111l989 997h-1024v248h1303q61 0 104 -35t43 -98q0 -58 -53 -111l-989 -997h1036v-248zM1145 1694l-524 -113v117l524 157v-161z" />
    <glyph glyph-name="zacute" unicode="&#x17a;" horiz-adv-x="1642" 
d="M1544 0h-1315q-62 0 -104.5 35t-42.5 98q0 58 53 111l989 997h-1024v248h1303q61 0 104 -35t43 -98q0 -58 -53 -111l-989 -997h1036v-248zM1145 1694l-524 -113v117l524 157v-161z" />
    <glyph glyph-name="Zdotaccent" unicode="&#x17b;" horiz-adv-x="1642" 
d="M1544 0h-1315q-62 0 -104.5 35t-42.5 98q0 58 53 111l989 997h-1024v248h1303q61 0 104 -35t43 -98q0 -58 -53 -111l-989 -997h1036v-248zM926 1737q0 -42 -30 -67t-75 -25t-74.5 25t-29.5 67t29.5 67t74.5 25t75 -25t30 -67z" />
    <glyph glyph-name="zdotaccent" unicode="&#x17c;" horiz-adv-x="1642" 
d="M1544 0h-1315q-62 0 -104.5 35t-42.5 98q0 58 53 111l989 997h-1024v248h1303q61 0 104 -35t43 -98q0 -58 -53 -111l-989 -997h1036v-248zM926 1737q0 -42 -30 -67t-75 -25t-74.5 25t-29.5 67t29.5 67t74.5 25t75 -25t30 -67z" />
    <glyph glyph-name="Zcaron" unicode="&#x17d;" horiz-adv-x="1642" 
d="M1544 0h-1315q-62 0 -104.5 35t-42.5 98q0 58 53 111l989 997h-1024v248h1303q61 0 104 -35t43 -98q0 -58 -53 -111l-989 -997h1036v-248zM891 1581h-186l-185 274h142l129 -202h16l129 202h143z" />
    <glyph glyph-name="zcaron" unicode="&#x17e;" horiz-adv-x="1642" 
d="M1544 0h-1315q-62 0 -104.5 35t-42.5 98q0 58 53 111l989 997h-1024v248h1303q61 0 104 -35t43 -98q0 -58 -53 -111l-989 -997h1036v-248zM891 1581h-186l-185 274h142l129 -202h16l129 202h143z" />
    <glyph glyph-name="Scommaaccent" unicode="&#x218;" horiz-adv-x="1802" 
d="M1245 0h-1116v260h1116q103 0 160 53t57 142q0 95 -56 143.5t-161 48.5h-684q-208 0 -331.5 118.5t-123.5 305.5q0 186 121 302t338 116h1069v-260h-1069q-89 0 -138.5 -48.5t-49.5 -133.5t50 -133t136 -48h682q228 0 345.5 -107.5t117.5 -322.5q0 -196 -119 -316
t-344 -120zM899 -412l-135 316h272z" />
    <glyph glyph-name="scommaaccent" unicode="&#x219;" horiz-adv-x="1802" 
d="M1245 0h-1116v260h1116q103 0 160 53t57 142q0 95 -56 143.5t-161 48.5h-684q-208 0 -331.5 118.5t-123.5 305.5q0 186 121 302t338 116h1069v-260h-1069q-89 0 -138.5 -48.5t-49.5 -133.5t50 -133t136 -48h682q228 0 345.5 -107.5t117.5 -322.5q0 -196 -119 -316
t-344 -120zM899 -412l-135 316h272z" />
    <glyph glyph-name="uni021A" unicode="&#x21a;" horiz-adv-x="1474" 
d="M866 0h-260v1229h-565v260h1391v-260h-566v-1229zM735 -412l-135 316h272z" />
    <glyph glyph-name="uni021B" unicode="&#x21b;" horiz-adv-x="1474" 
d="M866 0h-260v1229h-565v260h1391v-260h-566v-1229zM735 -412l-135 316h272z" />
    <glyph glyph-name="circumflex" unicode="&#x2c6;" horiz-adv-x="776" 
d="M668 1581h-144l-129 199h-16l-129 -199h-141l186 274h186z" />
    <glyph glyph-name="caron" unicode="&#x2c7;" horiz-adv-x="776" 
d="M479 1581h-186l-184 274h141l129 -202h16l129 202h144z" />
    <glyph glyph-name="breve" unicode="&#x2d8;" horiz-adv-x="782" 
d="M449 1581h-113q-59 0 -105.5 29t-71.5 73.5t-37.5 88.5t-12.5 83h139q2 -67 32.5 -126.5t90.5 -59.5h49q42 0 68.5 34t34.5 71.5t9 80.5h142q0 -30 -7 -64.5t-24 -72.5t-42 -68t-64.5 -49.5t-87.5 -19.5z" />
    <glyph glyph-name="dotaccent" unicode="&#x2d9;" horiz-adv-x="425" 
d="M317 1737q0 -42 -29.5 -67t-74.5 -25t-74.5 25t-29.5 67t29.5 67t74.5 25t74.5 -25t29.5 -67z" />
    <glyph glyph-name="ring" unicode="&#x2da;" horiz-adv-x="741" 
d="M422 1581h-105q-90 0 -149 60.5t-59 150.5q0 92 58.5 148.5t149.5 56.5h105q93 0 152 -56.5t59 -148.5q0 -90 -59.5 -150.5t-151.5 -60.5zM317 1657h105q58 0 95.5 38t37.5 95t-37 93t-96 36h-105q-57 0 -94 -36t-37 -93q0 -58 36.5 -95.5t94.5 -37.5z" />
    <glyph glyph-name="ogonek" unicode="&#x2db;" horiz-adv-x="479" 
d="M426 -412h-174q-104 0 -158.5 40.5t-54.5 111.5q0 85 82 139l184 121h121l-186 -125q-47 -32 -47 -65q0 -24 17.5 -38t47.5 -14h168v-170z" />
    <glyph glyph-name="tilde" unicode="&#x2dc;" horiz-adv-x="741" 
d="M633 1808v-122q-48 -60 -135 -60q-45 0 -127.5 40t-128.5 40q-38 0 -75.5 -21.5t-57.5 -50.5v121q49 62 133 62q48 0 130 -41t126 -41q40 0 77 21t58 52z" />
    <glyph glyph-name="hungarumlaut" unicode="&#x2dd;" horiz-adv-x="817" 
d="M543 1599h-109l96 256h179zM215 1599h-106l96 256h178z" />
    <glyph glyph-name="commaaccent" unicode="&#x326;" horiz-adv-x="448" 
d="M223 -412l-135 316h272z" />
    <glyph glyph-name="Wgrave" unicode="&#x1e80;" horiz-adv-x="2596" 
d="M1528 61l-230 437l-231 -437q-43 -81 -133 -81q-89 0 -135 81l-770 1428h311l602 -1145l225 406l-387 739h314l575 -1145l606 1145h291l-770 -1428q-46 -81 -135 -81q-90 0 -133 81zM1499 1581l-524 113v161l524 -157v-117z" />
    <glyph glyph-name="wgrave" unicode="&#x1e81;" horiz-adv-x="2596" 
d="M1528 61l-230 437l-231 -437q-43 -81 -133 -81q-89 0 -135 81l-770 1428h311l602 -1145l225 406l-387 739h314l575 -1145l606 1145h291l-770 -1428q-46 -81 -135 -81q-90 0 -133 81zM1499 1581l-524 113v161l524 -157v-117z" />
    <glyph glyph-name="Wacute" unicode="&#x1e82;" horiz-adv-x="2596" 
d="M1528 61l-230 437l-231 -437q-43 -81 -133 -81q-89 0 -135 81l-770 1428h311l602 -1145l225 406l-387 739h314l575 -1145l606 1145h291l-770 -1428q-46 -81 -135 -81q-90 0 -133 81zM1622 1694l-524 -113v117l524 157v-161z" />
    <glyph glyph-name="wacute" unicode="&#x1e83;" horiz-adv-x="2596" 
d="M1528 61l-230 437l-231 -437q-43 -81 -133 -81q-89 0 -135 81l-770 1428h311l602 -1145l225 406l-387 739h314l575 -1145l606 1145h291l-770 -1428q-46 -81 -135 -81q-90 0 -133 81zM1622 1694l-524 -113v117l524 157v-161z" />
    <glyph glyph-name="Wdieresis" unicode="&#x1e84;" horiz-adv-x="2596" 
d="M1528 61l-230 437l-231 -437q-43 -81 -133 -81q-89 0 -135 81l-770 1428h311l602 -1145l225 406l-387 739h314l575 -1145l606 1145h291l-770 -1428q-46 -81 -135 -81q-90 0 -133 81zM1212 1737q0 -42 -29 -67t-73 -25q-47 0 -76.5 25t-29.5 67t29.5 67t76.5 25
q44 0 73 -25t29 -67zM1591 1737q0 -42 -29.5 -67t-74.5 -25t-75 25t-30 67t30 67t75 25t74.5 -25t29.5 -67z" />
    <glyph glyph-name="wdieresis" unicode="&#x1e85;" horiz-adv-x="2596" 
d="M1528 61l-230 437l-231 -437q-43 -81 -133 -81q-89 0 -135 81l-770 1428h311l602 -1145l225 406l-387 739h314l575 -1145l606 1145h291l-770 -1428q-46 -81 -135 -81q-90 0 -133 81zM1212 1737q0 -42 -29 -67t-73 -25q-47 0 -76.5 25t-29.5 67t29.5 67t76.5 25
q44 0 73 -25t29 -67zM1591 1737q0 -42 -29.5 -67t-74.5 -25t-75 25t-30 67t30 67t75 25t74.5 -25t29.5 -67z" />
    <glyph glyph-name="Ygrave" unicode="&#x1ef2;" horiz-adv-x="1896" 
d="M1077 0h-260v565l-790 924h350l579 -686l582 686h332l-793 -924v-565zM1155 1581l-524 113v161l524 -157v-117z" />
    <glyph glyph-name="ygrave" unicode="&#x1ef3;" horiz-adv-x="1896" 
d="M1077 0h-260v565l-790 924h350l579 -686l582 686h332l-793 -924v-565zM1155 1581l-524 113v161l524 -157v-117z" />
    <glyph glyph-name="endash" unicode="&#x2013;" horiz-adv-x="1208" 
d="M1155 655h-1096v205h1096v-205z" />
    <glyph glyph-name="emdash" unicode="&#x2014;" horiz-adv-x="1773" 
d="M1718 655h-1659v205h1659v-205z" />
    <glyph glyph-name="quoteleft" unicode="&#x2018;" horiz-adv-x="530" 
d="M231 1489h170v-533h-272z" />
    <glyph glyph-name="quoteright" unicode="&#x2019;" horiz-adv-x="530" 
d="M299 956h-160v533h262z" />
    <glyph glyph-name="quotesinglbase" unicode="&#x201a;" horiz-adv-x="530" 
d="M299 -242h-160v533h262z" />
    <glyph glyph-name="quotedblleft" unicode="&#x201c;" horiz-adv-x="946" 
d="M231 1489h170v-533h-272zM670 1489h168v-533h-273z" />
    <glyph glyph-name="quotedblright" unicode="&#x201d;" horiz-adv-x="946" 
d="M299 956h-160v533h262zM735 956h-160v533h263z" />
    <glyph glyph-name="quotedblbase" unicode="&#x201e;" horiz-adv-x="946" 
d="M299 -242h-160v533h262zM735 -242h-160v533h263z" />
    <glyph glyph-name="dagger" unicode="&#x2020;" horiz-adv-x="954" 
d="M539 0h-119v1047h-291v116h291v326h119v-326h286v-116h-286v-1047z" />
    <glyph glyph-name="daggerdbl" unicode="&#x2021;" horiz-adv-x="954" 
d="M539 0h-119v324h-291v116h291v607h-291v118h291v324h119v-324h286v-118h-286v-607h286v-116h-286v-324z" />
    <glyph glyph-name="bullet" unicode="&#x2022;" horiz-adv-x="845" 
d="M717 760q0 -120 -88 -207.5t-209 -87.5q-120 0 -205.5 87.5t-85.5 207.5q0 122 85.5 208.5t205.5 86.5q122 0 209.5 -87t87.5 -208z" />
    <glyph glyph-name="ellipsis" unicode="&#x2026;" horiz-adv-x="2682" 
d="M408 123q0 -59 -41 -99t-101 -40q-58 0 -97.5 40t-39.5 99t39.5 99t97.5 40q60 0 101 -40t41 -99zM1481 123q0 -59 -41 -99t-101 -40q-58 0 -97.5 40t-39.5 99t39.5 99t97.5 40q60 0 101 -40t41 -99zM2554 123q0 -59 -40.5 -99t-100.5 -40q-58 0 -98 40t-40 99t40 99
t98 40q60 0 100.5 -40t40.5 -99z" />
    <glyph glyph-name="perthousand" unicode="&#x2030;" horiz-adv-x="2691" 
d="M471 758q-163 0 -274 113.5t-111 275.5q0 163 110 269t275 106q164 0 275.5 -106t111.5 -269q0 -162 -112.5 -275.5t-274.5 -113.5zM727 1141q0 110 -68.5 180t-187.5 70t-187.5 -70t-68.5 -180q0 -111 68 -181.5t188 -70.5q119 0 187.5 71t68.5 181zM315 -137h-178
l1346 1716h174zM1339 -31q-163 0 -274 113.5t-111 275.5q0 163 110 269t275 106q164 0 275.5 -106t111.5 -269q0 -162 -112.5 -275.5t-274.5 -113.5zM1595 352q0 110 -68.5 180t-187.5 70t-187.5 -70t-68.5 -180q0 -111 68 -181.5t188 -70.5q119 0 187.5 71t68.5 181z
M2218 -31q-163 0 -274 113.5t-111 275.5q0 163 110 269t275 106q164 0 275.5 -106t111.5 -269q0 -162 -112.5 -275.5t-274.5 -113.5zM2474 352q0 110 -68.5 180t-187.5 70t-187.5 -70t-68.5 -180q0 -111 68 -181.5t188 -70.5q119 0 187.5 71t68.5 181z" />
    <glyph glyph-name="guilsinglleft" unicode="&#x2039;" horiz-adv-x="751" 
d="M668 379l-547 330q-35 21 -35 51q0 34 35 55l547 328v-129l-447 -256l447 -258v-121z" />
    <glyph glyph-name="guilsinglright" unicode="&#x203a;" horiz-adv-x="753" 
d="M635 709l-549 -330v121l446 258l-446 256v129l549 -328q35 -21 35 -55q0 -30 -35 -51z" />
    <glyph glyph-name="fraction" unicode="&#x2044;" horiz-adv-x="378" 
d="M-391 -137h-178l1345 1716h174z" />
    <glyph glyph-name="zerosuperior" unicode="&#x2070;" horiz-adv-x="919" 
d="M459 758q-163 0 -274 113.5t-111 275.5q0 163 110 269t275 106q164 0 275.5 -106t111.5 -269q0 -162 -112.5 -275.5t-274.5 -113.5zM715 1141q0 110 -68.5 180t-187.5 70t-187.5 -70t-68.5 -180q0 -111 68 -181.5t188 -70.5q119 0 187.5 71t68.5 181z" />
    <glyph glyph-name="foursuperior" unicode="&#x2074;" horiz-adv-x="925" 
d="M762 768h-129v199h-309q-244 0 -244 237v307h129v-305q0 -63 27.5 -88.5t87.5 -25.5h309v419h129v-419h108v-125h-108v-199z" />
    <glyph glyph-name="fivesuperior" unicode="&#x2075;" horiz-adv-x="966" 
d="M653 768h-559v129h559q52 0 79.5 26.5t27.5 71.5q0 47 -28 72t-79 25h-559v419h754v-129h-619v-182h424q230 0 230 -215q0 -98 -59 -157.5t-171 -59.5z" />
    <glyph glyph-name="sixsuperior" unicode="&#x2076;" horiz-adv-x="954" 
d="M643 768h-231q-161 0 -249.5 96t-88.5 283q0 186 87.5 275t250.5 89h426v-129h-426q-182 0 -205 -180h436q108 0 166.5 -52t58.5 -157q0 -107 -60 -166t-165 -59zM631 1092h-426q20 -195 207 -195h219q112 0 112 102q0 93 -112 93z" />
    <glyph glyph-name="sevensuperior" unicode="&#x2077;" horiz-adv-x="835" 
d="M250 768h-168l508 614h-514v129h624q82 0 82 -61q0 -31 -24 -61z" />
    <glyph glyph-name="eightsuperior" unicode="&#x2078;" horiz-adv-x="980" 
d="M657 768h-335q-109 0 -174.5 61t-65.5 164q0 62 32 106t85 62q-45 13 -74 52.5t-29 105.5q0 93 65 142.5t175 49.5h307q112 0 177 -49.5t65 -142.5q0 -66 -29.5 -105.5t-75.5 -52.5q53 -18 85 -62t32 -106q0 -103 -65.5 -164t-174.5 -61zM653 1092h-325q-55 0 -85 -25.5
t-30 -71.5q0 -48 38.5 -73t102.5 -25h273q64 0 101.5 25t37.5 73q0 46 -29.5 71.5t-83.5 25.5zM618 1382h-258q-66 0 -99.5 -21t-33.5 -71q0 -47 26.5 -68.5t82.5 -21.5h307q56 0 82.5 21.5t26.5 68.5q0 50 -33 71t-101 21z" />
    <glyph glyph-name="ninesuperior" unicode="&#x2079;" horiz-adv-x="942" 
d="M530 768h-372v129h372q174 0 203 164h-444q-215 0 -215 219q0 100 58.5 165.5t156.5 65.5h241q160 0 249 -95.5t89 -282.5q0 -185 -88 -275t-250 -90zM205 1272q0 -103 104 -103h428q-12 211 -207 211h-221q-48 0 -76 -28t-28 -80z" />
    <glyph glyph-name="zeroinferior" unicode="&#x2080;" horiz-adv-x="919" 
d="M459 -31q-163 0 -274 113.5t-111 275.5q0 163 110 269t275 106q164 0 275.5 -106t111.5 -269q0 -162 -112.5 -275.5t-274.5 -113.5zM715 352q0 110 -68.5 180t-187.5 70t-187.5 -70t-68.5 -180q0 -111 68 -181.5t188 -70.5q119 0 187.5 71t68.5 181z" />
    <glyph glyph-name="oneinferior" unicode="&#x2081;" horiz-adv-x="454" 
d="M360 -20h-129v499q0 56 -26.5 85.5t-77.5 29.5h-72v129h72q112 0 172.5 -64t60.5 -180v-499z" />
    <glyph glyph-name="twoinferior" unicode="&#x2082;" horiz-adv-x="905" 
d="M809 -20h-715v217q0 215 230 215h270q42 0 68 24.5t26 65.5q0 43 -25.5 67.5t-68.5 24.5h-494v129h494q108 0 167.5 -58t59.5 -151q0 -94 -61.5 -152.5t-165.5 -58.5h-270q-107 0 -107 -96v-98h592v-129z" />
    <glyph glyph-name="threeinferior" unicode="&#x2083;" horiz-adv-x="907" 
d="M588 -20h-510v129h477q63 0 101 26t38 72t-28.5 71t-83.5 25h-328v109h319q56 0 82.5 21.5t26.5 68.5q0 50 -33.5 71t-101.5 21h-467v129h493q110 0 175 -50t65 -143q0 -66 -28.5 -105t-73.5 -52q53 -18 84.5 -61.5t31.5 -106.5q0 -102 -65.5 -163.5t-173.5 -61.5z" />
    <glyph glyph-name="fourinferior" unicode="&#x2084;" horiz-adv-x="925" 
d="M762 -20h-129v198h-309q-244 0 -244 238v307h129v-305q0 -63 27.5 -89t87.5 -26h309v420h129v-420h108v-125h-108v-198z" />
    <glyph glyph-name="fiveinferior" unicode="&#x2085;" horiz-adv-x="966" 
d="M653 -20h-559v129h559q52 0 79.5 26.5t27.5 71.5q0 47 -28 71.5t-79 24.5h-559v420h754v-129h-619v-182h424q230 0 230 -215q0 -98 -59 -157.5t-171 -59.5z" />
    <glyph glyph-name="sixinferior" unicode="&#x2086;" horiz-adv-x="954" 
d="M643 -20h-231q-161 0 -249.5 95.5t-88.5 282.5q0 186 87.5 275.5t250.5 89.5h426v-129h-426q-182 0 -205 -180h436q108 0 166.5 -52t58.5 -157q0 -107 -60 -166t-165 -59zM631 303h-426q20 -194 207 -194h219q112 0 112 102q0 92 -112 92z" />
    <glyph glyph-name="seveninferior" unicode="&#x2087;" horiz-adv-x="835" 
d="M250 -20h-168l508 614h-514v129h624q82 0 82 -61q0 -32 -24 -62z" />
    <glyph glyph-name="eightinferior" unicode="&#x2088;" horiz-adv-x="980" 
d="M657 -20h-335q-109 0 -174.5 61t-65.5 164q0 62 32 106t85 62q-45 13 -74 52t-29 105q0 93 65 143t175 50h307q111 0 176.5 -50t65.5 -143q0 -66 -29.5 -105t-75.5 -52q53 -18 85 -62t32 -106q0 -103 -65.5 -164t-174.5 -61zM653 303h-325q-55 0 -85 -25t-30 -71
q0 -48 38.5 -73t102.5 -25h273q64 0 101.5 25t37.5 73q0 46 -29.5 71t-83.5 25zM618 594h-258q-66 0 -99.5 -21t-33.5 -71q0 -47 26.5 -68.5t82.5 -21.5h307q56 0 82.5 21.5t26.5 68.5q0 50 -33 71t-101 21z" />
    <glyph glyph-name="nineinferior" unicode="&#x2089;" horiz-adv-x="942" 
d="M530 -20h-372v129h372q175 0 203 163h-444q-215 0 -215 220q0 100 58.5 165.5t156.5 65.5h241q160 0 249 -96t89 -283q0 -185 -88 -274.5t-250 -89.5zM205 483q0 -102 104 -102h428q-12 211 -207 211h-221q-48 0 -76 -28.5t-28 -80.5z" />
    <glyph glyph-name="Euro" unicode="&#x20ac;" horiz-adv-x="1810" 
d="M1628 0h-692q-260 0 -452 155.5t-251 405.5h-172l27 94h129q-6 49 -6 105q0 30 4 84h-154l27 96h141q55 250 247.5 399.5t459.5 149.5h809l-170 -260h-639q-148 0 -259 -78t-159 -211h879l-64 -96h-852q-8 -41 -8 -96q0 -46 6 -93h735l-61 -94h-639q46 -137 159 -219
t263 -82h692v-260z" />
    <glyph glyph-name="uni2117" unicode="&#x2117;" horiz-adv-x="1697" 
d="M850 -20q-155 0 -296.5 60.5t-244 163t-163 244.5t-60.5 297t60.5 296.5t163 243.5t243.5 162t297 60q155 0 296.5 -60t243.5 -162t162 -243.5t60 -296.5q0 -125 -38.5 -241.5t-108.5 -210.5t-164 -165t-210.5 -109.5t-240.5 -38.5zM854 49q187 0 346 93t251.5 253
t92.5 348q0 189 -92.5 349.5t-251.5 254t-346 93.5q-191 0 -351 -93.5t-251.5 -253.5t-91.5 -350q0 -141 54 -269.5t146.5 -221.5t221.5 -148t272 -55zM1006 623h-285v69h285q73 0 115 40.5t42 107.5q0 68 -42 106.5t-115 38.5h-392v-547h-75v625h467q108 0 170.5 -59.5
t62.5 -159.5q0 -99 -62.5 -160t-170.5 -61z" />
    <glyph glyph-name="trademark" unicode="&#x2122;" horiz-adv-x="1097" 
d="M969 983h-88v283l-95 -283h-69l-99 283v-283h-88v506h84l136 -361l137 361h82v-506zM324 983h-91v418h-141v88h371v-88h-139v-418z" />
    <glyph glyph-name="onethird" unicode="&#x2153;" horiz-adv-x="1947" 
d="M561 768h-129v500q0 114 -104 114h-72v129h72q112 0 172.5 -63.5t60.5 -179.5v-500zM264 -137h-178l1346 1716h174zM1622 -20h-510v129h477q63 0 101.5 26t38.5 72t-29 71t-84 25h-328v109h320q56 0 82 21.5t26 68.5q0 50 -33.5 71t-101.5 21h-467v129h494
q110 0 174.5 -50t64.5 -143q0 -66 -28.5 -105t-73.5 -52q53 -18 85 -62t32 -106q0 -101 -65.5 -163t-174.5 -62z" />
    <glyph glyph-name="twothirds" unicode="&#x2154;" horiz-adv-x="2004" 
d="M801 768h-715v217q0 215 229 215h271q42 0 68 24.5t26 65.5q0 43 -25.5 67.5t-68.5 24.5h-494v129h494q108 0 167.5 -57.5t59.5 -150.5q0 -94 -61.5 -152.5t-165.5 -58.5h-271q-106 0 -106 -97v-98h592v-129zM383 -137h-178l1345 1716h174zM1679 -20h-510v129h478
q63 0 101 26t38 72t-29 71t-84 25h-327v109h319q56 0 82.5 21.5t26.5 68.5q0 50 -34 71t-102 21h-467v129h494q110 0 175 -50t65 -143q0 -66 -29 -105t-74 -52q53 -18 85 -62t32 -106q0 -101 -65.5 -163t-174.5 -62z" />
    <glyph glyph-name="oneeighth" unicode="&#x215b;" horiz-adv-x="2017" 
d="M561 768h-129v500q0 114 -104 114h-72v129h72q112 0 172.5 -63.5t60.5 -179.5v-500zM264 -137h-178l1346 1716h174zM1692 -20h-336q-109 0 -174.5 61t-65.5 164q0 62 32 106t85 62q-45 13 -74 52t-29 105q0 93 65 143t175 50h307q111 0 176.5 -50t65.5 -143
q0 -66 -29 -105t-75 -52q53 -18 84.5 -61.5t31.5 -106.5q0 -103 -65 -164t-174 -61zM1688 303h-326q-55 0 -85 -25t-30 -71q0 -48 39 -73t103 -25h272q64 0 101.5 25t37.5 73q0 46 -29 71t-83 25zM1653 594h-258q-66 0 -99.5 -21t-33.5 -71q0 -47 26 -68.5t82 -21.5h307
q56 0 82.5 21.5t26.5 68.5q0 51 -32.5 71.5t-100.5 20.5z" />
    <glyph glyph-name="threeeighths" unicode="&#x215c;" horiz-adv-x="1990" 
d="M596 768h-510v129h477q63 0 101 26t38 72t-28.5 71.5t-83.5 25.5h-328v108h320q56 0 82 21.5t26 68.5q0 50 -33.5 71t-101.5 21h-467v129h494q110 0 174.5 -49.5t64.5 -142.5q0 -66 -28.5 -105.5t-73.5 -52.5q53 -18 85 -62t32 -106q0 -101 -65.5 -163t-174.5 -62z
M360 -137h-178l1346 1716h174zM1665 -20h-336q-109 0 -174 61t-65 164q0 63 31.5 106.5t84.5 61.5q-45 13 -73.5 52t-28.5 105q0 93 64.5 143t174.5 50h308q111 0 176 -50t65 -143q0 -66 -29 -105t-75 -52q53 -18 85 -62t32 -106q0 -103 -65.5 -164t-174.5 -61zM1661 303
h-326q-55 0 -84.5 -25t-29.5 -71q0 -48 38.5 -73t102.5 -25h272q64 0 102 25t38 73q0 46 -29.5 71t-83.5 25zM1626 594h-258q-66 0 -99.5 -21t-33.5 -71q0 -47 26 -68.5t82 -21.5h308q56 0 82 21.5t26 68.5q0 51 -32.5 71.5t-100.5 20.5z" />
    <glyph glyph-name="fiveeighths" unicode="&#x215d;" horiz-adv-x="1992" 
d="M645 768h-559v129h559q52 0 79.5 26.5t27.5 71.5q0 47 -28 72t-79 25h-559v419h754v-129h-619v-182h424q229 0 229 -215q0 -98 -58.5 -157.5t-170.5 -59.5zM383 -137h-178l1345 1716h174zM1667 -20h-336q-109 0 -174 61t-65 164q0 63 31.5 106.5t84.5 61.5
q-45 13 -73.5 52t-28.5 105q0 93 65 143t175 50h307q111 0 176 -50t65 -143q0 -66 -29 -105t-75 -52q53 -18 85 -62t32 -106q0 -103 -65.5 -164t-174.5 -61zM1663 303h-326q-55 0 -84.5 -25t-29.5 -71q0 -48 38.5 -73t102.5 -25h272q64 0 102 25t38 73q0 46 -29.5 71
t-83.5 25zM1628 594h-258q-66 0 -99.5 -21t-33.5 -71q0 -47 26.5 -68.5t82.5 -21.5h307q56 0 82 21.5t26 68.5q0 51 -32.5 71.5t-100.5 20.5z" />
    <glyph glyph-name="seveneighths" unicode="&#x215e;" horiz-adv-x="1976" 
d="M342 768h-168l508 614h-514v129h625q81 0 81 -61q0 -31 -24 -61zM264 -137h-178l1346 1716h174zM1651 -20h-336q-109 0 -174.5 61t-65.5 164q0 62 32 106t85 62q-45 13 -73.5 52t-28.5 105q0 93 64.5 143t174.5 50h307q111 0 176.5 -50t65.5 -143q0 -66 -29 -105t-75 -52
q53 -18 84.5 -61.5t31.5 -106.5q0 -103 -65 -164t-174 -61zM1647 303h-326q-55 0 -85 -25t-30 -71q0 -48 39 -73t103 -25h272q64 0 101.5 25t37.5 73q0 46 -29 71t-83 25zM1612 594h-258q-66 0 -99.5 -21t-33.5 -71q0 -47 26 -68.5t82 -21.5h307q56 0 82.5 21.5t26.5 68.5
q0 51 -32.5 71.5t-100.5 20.5z" />
    <glyph glyph-name="minus" unicode="&#x2212;" horiz-adv-x="1413" 
d="M1284 672h-1155v172h1155v-172z" />
    <glyph glyph-name="approxequal" unicode="&#x2248;" horiz-adv-x="1415" 
d="M1286 653v-190q-114 -105 -297 -105q-66 0 -143 22t-137 48t-138 48t-145 22q-82 0 -163 -34.5t-132 -88.5v188q112 109 295 109q66 0 143.5 -22t137 -48t137.5 -48t145 -22q83 0 166 36.5t131 84.5zM1286 1145v-191q-112 -104 -297 -104q-66 0 -143 21.5t-137 48
t-138 48t-145 21.5q-82 0 -163 -34.5t-132 -88.5v189q111 108 295 108q66 0 143.5 -21.5t137 -48t137.5 -48t145 -21.5q83 0 166 36.5t131 84.5z" />
    <glyph glyph-name="notequal" unicode="&#x2260;" horiz-adv-x="1413" 
d="M125 -137h-178l415 530h-233v172h369l299 381h-668v172h803l360 461h174l-360 -461h178v-172h-313l-297 -381h610v-172h-745z" />
    <glyph glyph-name="lessequal" unicode="&#x2264;" horiz-adv-x="1413" 
d="M1284 205l-1085 457q-70 29 -70 96q0 30 19 56.5t51 39.5l1085 455v-187l-934 -364l934 -369v-184zM1284 -106h-1155v172h1155v-172z" />
    <glyph glyph-name="greaterequal" unicode="&#x2265;" horiz-adv-x="1413" 
d="M1214 662l-1085 -457v184l934 369l-934 364v187l1085 -455q32 -13 51 -39.5t19 -56.5q0 -67 -70 -96zM1284 -106h-1155v172h1155v-172z" />
    <glyph glyph-name="CR" horiz-adv-x="212" 
 />
    </font>
</defs>
</svg>
